<svg version="1.1" id="Layer_1" xmlns="http://www.w3.org/2000/svg" xmlns:xlink="http://www.w3.org/1999/xlink" x="0px" y="0px"
	 width="100%" viewBox="0 0 1000 1000" enable-background="new 0 0 1000 1000" xml:space="preserve">
<path fill="#FFFFFF" opacity="1.000000" stroke="none" 
	d="
M543.000000,1001.000000 
	C362.000000,1001.000000 181.500000,1001.000000 1.000000,1001.000000 
	C1.000000,667.666687 1.000000,334.333344 1.000000,1.000000 
	C334.333344,1.000000 667.666687,1.000000 1001.000000,1.000000 
	C1001.000000,334.333344 1001.000000,667.666687 1001.000000,1001.000000 
	C848.500000,1001.000000 696.000000,1001.000000 543.000000,1001.000000 
M542.358521,123.734863 
	C539.674988,121.944298 537.037964,120.079094 534.300171,118.375687 
	C520.296021,109.662422 505.433105,105.297195 488.087585,109.590576 
	C484.471527,110.765442 480.553589,111.396683 477.291168,113.208359 
	C462.384613,121.486244 447.661957,130.095245 432.169067,138.770493 
	C413.736359,149.412811 395.303680,160.055130 376.169037,170.854172 
	C372.335724,173.026962 368.484406,175.168747 364.672150,177.377899 
	C347.757996,187.179474 330.855042,197.000366 313.242554,206.939880 
	C298.537750,215.338364 283.808563,223.694595 269.136139,232.149338 
	C258.365540,238.355728 247.669357,244.691238 236.247726,251.075729 
	C184.094055,280.954468 131.778778,310.555725 79.840195,340.803772 
	C41.468132,363.150970 41.666332,417.211517 79.799332,439.920563 
	C89.239700,445.542511 98.865135,450.853119 108.386063,456.340546 
	C133.622513,470.885742 158.848312,485.449402 183.647278,500.540253 
	C173.097198,506.691284 162.547104,512.842346 151.298752,519.088562 
	C147.244064,521.383057 143.157471,523.623230 139.140030,525.981140 
	C118.217911,538.260803 96.794968,549.778320 76.519676,563.048279 
	C42.963570,585.010437 42.532875,634.814209 75.645065,657.034363 
	C91.066216,667.382812 107.840973,675.714111 124.469872,685.471375 
	C142.597031,695.803345 160.724197,706.135315 179.299316,716.955627 
	C194.824097,725.766418 210.348877,734.577148 226.291565,743.887634 
	C244.508530,754.310791 262.725494,764.733948 281.270050,775.761475 
	C282.580170,776.458069 283.906738,777.125549 285.197968,777.855591 
	C304.420227,788.723022 323.637848,799.598633 343.279968,810.966064 
	C361.855743,821.550476 380.431488,832.134949 399.529846,843.196106 
	C418.321533,853.884644 437.113220,864.573181 456.312042,875.789185 
	C462.390411,879.253845 468.320404,883.016968 474.575317,886.126465 
	C492.466888,895.020874 510.391205,895.273438 528.848877,885.336365 
	C535.914368,881.327881 543.007385,877.367126 550.039917,873.301636 
	C567.390564,863.271118 584.713318,853.192444 602.750977,843.019653 
	C608.778320,839.414062 614.753540,835.717651 620.843140,832.220520 
	C636.651917,823.141724 652.510986,814.150574 669.025391,805.014465 
	C674.666992,801.810730 680.328125,798.640808 685.946716,795.397034 
	C706.684875,783.424011 727.409119,771.426514 748.838562,759.244690 
	C761.434998,751.941650 774.031433,744.638611 787.284424,737.194946 
	C832.369751,711.377808 877.691895,685.963257 922.467102,659.619080 
	C959.798157,637.654846 960.657043,584.279907 923.833740,561.962708 
	C888.958984,540.826416 853.141418,521.245667 817.877869,500.283783 
	C821.588989,497.864594 825.300171,495.445374 829.707275,492.916962 
	C850.843384,480.719147 871.979431,468.521362 893.815186,456.149872 
	C903.782715,450.434814 913.944275,445.030548 923.682678,438.948578 
	C957.987915,417.523804 960.224121,368.129944 927.614014,344.539459 
	C917.160767,336.977539 905.274597,331.396332 893.643250,324.366608 
	C871.761536,311.912598 849.879761,299.458588 827.579407,286.466797 
	C825.278442,285.137329 822.986023,283.792755 820.675110,282.480743 
	C801.473083,271.578918 782.267700,260.683136 762.651245,249.264069 
	C744.433655,238.894638 726.216003,228.525192 707.501953,217.667648 
	C704.489441,215.916687 701.492554,214.138168 698.461853,212.419250 
	C681.005615,202.518631 663.541504,192.632095 645.686096,182.209244 
	C627.449768,171.841797 609.213440,161.474350 590.538208,150.581863 
	C576.178528,142.333237 561.827515,134.069397 547.445190,125.860451 
	C546.063293,125.071709 544.486267,124.624855 542.358521,123.734863 
z"/>
<path fill="#F97901" opacity="1.000000" stroke="none" 
	d="
M184.078369,500.005737 
	C158.848312,485.449402 133.622513,470.885742 108.386063,456.340546 
	C98.865135,450.853119 89.239700,445.542511 79.799332,439.920563 
	C41.666332,417.211517 41.468132,363.150970 79.840195,340.803772 
	C131.778778,310.555725 184.094055,280.954468 236.945129,251.218109 
	C238.095016,252.875351 238.857086,254.373901 238.938049,255.908386 
	C239.130310,259.552277 238.995422,263.213196 239.000717,266.867218 
	C239.055984,305.066406 239.112839,343.265625 238.945267,381.701233 
	C234.124420,384.636475 229.527542,387.335358 224.629364,390.211121 
	C226.812439,391.752167 228.405670,392.876831 229.988678,394.424500 
	C229.652527,397.801666 229.059097,400.754486 229.044464,403.710175 
	C228.956284,421.541809 228.920609,439.374695 229.049805,457.205811 
	C229.088104,462.493774 229.715210,467.777466 230.045029,473.030518 
	C230.017548,472.997955 230.057373,473.071777 229.687012,473.051270 
	C228.218246,474.035461 227.119827,475.040192 225.812790,476.311035 
	C218.720428,480.707428 211.836700,484.837738 204.605164,489.016663 
	C197.531036,492.712067 190.804703,496.358887 184.078369,500.005737 
z"/>
<path fill="#F97901" opacity="1.000000" stroke="none" 
	d="
M817.738525,500.980743 
	C853.141418,521.245667 888.958984,540.826416 923.833740,561.962708 
	C960.657043,584.279907 959.798157,637.654846 922.467102,659.619080 
	C877.691895,685.963257 832.369751,711.377808 786.567871,737.001160 
	C785.567505,734.717651 785.037415,732.628113 785.035828,730.538208 
	C784.991455,670.487366 785.046997,610.436523 784.955383,550.385803 
	C784.939453,539.950562 784.337891,529.516235 784.317688,518.922791 
	C788.784424,516.360474 792.874756,513.833618 797.111084,511.581238 
	C803.936218,507.952484 810.857727,504.504883 817.738525,500.980743 
z"/>
<path fill="#F9B900" opacity="1.000000" stroke="none" 
	d="
M817.808228,500.632263 
	C810.857727,504.504883 803.936218,507.952484 797.111084,511.581238 
	C792.874756,513.833618 788.784424,516.360474 784.005981,519.053833 
	C776.940063,522.905151 770.496826,526.466736 763.645935,530.018555 
	C760.742432,530.599915 758.246582,531.190979 755.000000,531.959839 
	C755.000000,529.563965 755.000000,527.633545 755.000000,525.703186 
	C755.000000,487.676117 755.022766,449.649017 754.946289,411.622131 
	C754.941467,409.206360 754.165100,406.792175 753.978394,404.146790 
	C761.811523,399.499420 769.413879,395.082458 777.555969,390.351898 
	C771.563171,386.767365 766.345581,383.646515 761.529297,380.264465 
	C762.287109,377.942810 762.950562,375.882904 762.954651,373.821686 
	C763.036438,332.476379 763.042236,291.130920 763.063293,249.785492 
	C782.267700,260.683136 801.473083,271.578918 820.675110,282.480743 
	C822.986023,283.792755 825.278442,285.137329 827.789246,287.204041 
	C827.999390,354.034790 827.989624,420.128296 828.042542,486.221771 
	C828.044373,488.490173 828.674255,490.758057 829.011353,493.026184 
	C825.300171,495.445374 821.588989,497.864594 817.808228,500.632263 
z"/>
<path fill="#F9B900" opacity="1.000000" stroke="none" 
	d="
M204.952942,488.968018 
	C211.836700,484.837738 218.720428,480.707428 226.154877,476.267151 
	C227.822861,474.995422 228.940125,474.033600 230.057373,473.071777 
	C230.057373,473.071777 230.017548,472.997955 230.415100,473.023865 
	C233.047714,472.029510 235.340424,471.117889 237.507187,469.968781 
	C244.352539,466.338501 251.150711,462.619293 258.222534,459.231873 
	C261.237122,459.926270 262.056641,461.401123 262.075684,464.259949 
	C262.288849,496.300690 262.687286,528.340149 262.986877,560.380371 
	C263.072357,569.522339 262.999634,578.665833 262.744629,588.050903 
	C249.980026,595.510315 237.470261,602.727478 224.698410,610.095886 
	C225.796539,611.097290 226.395538,611.643494 226.996765,612.646484 
	C226.999329,653.585449 227.023056,694.067627 226.951431,734.549683 
	C226.946213,737.496338 226.249100,740.441895 225.873657,743.387939 
	C210.348877,734.577148 194.824097,725.766418 179.121735,716.254028 
	C179.295914,712.270996 179.920181,708.992065 179.951111,705.707642 
	C180.070175,693.061768 180.009857,680.414185 179.995804,667.767212 
	C179.986008,658.948669 180.264938,650.110840 179.740067,641.321899 
	C179.555313,638.228333 179.966339,636.460876 182.455765,634.683411 
	C190.360382,629.039124 198.167206,623.252563 205.864975,617.330200 
	C206.985764,616.467896 207.830795,614.592407 207.909760,613.137268 
	C208.412552,603.870422 209.088074,594.582092 208.913223,585.315796 
	C208.522293,564.596985 207.478027,543.890686 207.083725,523.171936 
	C206.901062,513.573730 207.774353,503.958618 207.781769,494.350861 
	C207.783157,492.557312 205.943161,490.762329 204.952942,488.968018 
z"/>
<path fill="#F9C601" opacity="1.000000" stroke="none" 
	d="
M124.002151,684.959778 
	C107.840973,675.714111 91.066216,667.382812 75.645065,657.034363 
	C42.532875,634.814209 42.963570,585.010437 76.519676,563.048279 
	C96.794968,549.778320 118.217911,538.260803 139.140030,525.981140 
	C143.157471,523.623230 147.244064,521.383057 151.648865,519.493896 
	C152.666000,532.619568 153.643356,545.333740 153.897430,558.062378 
	C154.085648,567.491150 153.023788,576.940186 153.069870,586.377502 
	C153.145996,601.973022 153.312088,617.585205 154.143280,633.152893 
	C154.586838,641.460327 153.200058,647.777893 145.817123,653.044495 
	C138.796402,658.052551 136.445862,658.362122 131.882248,650.854980 
	C130.228104,648.133972 128.240051,645.615906 126.404327,643.005249 
	C125.936119,643.255249 125.467903,643.505249 124.999695,643.755249 
	C124.999695,651.882202 125.121925,660.011597 124.957626,668.135193 
	C124.844109,673.747559 124.334663,679.351868 124.002151,684.959778 
z"/>
<path fill="#F9C101" opacity="1.000000" stroke="none" 
	d="
M829.359314,492.971558 
	C828.674255,490.758057 828.044373,488.490173 828.042542,486.221771 
	C827.989624,420.128296 827.999390,354.034790 827.998535,287.472931 
	C849.879761,299.458588 871.761536,311.912598 893.674072,325.027649 
	C893.470398,326.811859 893.030701,327.935028 893.030823,329.058197 
	C893.033875,371.479980 893.077454,413.901764 893.115540,456.323547 
	C871.979431,468.521362 850.843384,480.719147 829.359314,492.971558 
z"/>
<path fill="#F98201" opacity="1.000000" stroke="none" 
	d="
M748.138550,759.438232 
	C727.409119,771.426514 706.684875,783.424011 685.946716,795.397034 
	C680.328125,798.640808 674.666992,801.810730 668.247314,805.022278 
	C663.663208,804.555664 665.060608,801.556091 665.057129,799.564087 
	C664.984802,758.120972 665.006958,716.677612 665.267334,674.992310 
	C692.685425,659.238403 719.846558,643.726440 747.007568,628.630127 
	C747.338257,633.816162 747.941772,638.585815 747.956970,643.357239 
	C748.079773,682.050720 748.092346,720.744507 748.138550,759.438232 
z"/>
<path fill="#F9C101" opacity="1.000000" stroke="none" 
	d="
M124.236008,685.215576 
	C124.334663,679.351868 124.844109,673.747559 124.957626,668.135193 
	C125.121925,660.011597 124.999695,651.882202 124.999695,643.755249 
	C125.467903,643.505249 125.936119,643.255249 126.404327,643.005249 
	C128.240051,645.615906 130.228104,648.133972 131.882248,650.854980 
	C136.445862,658.362122 138.796402,658.052551 145.817123,653.044495 
	C153.200058,647.777893 154.586838,641.460327 154.143280,633.152893 
	C153.312088,617.585205 153.145996,601.973022 153.069870,586.377502 
	C153.023788,576.940186 154.085648,567.491150 153.897430,558.062378 
	C153.643356,545.333740 152.666000,532.619568 151.998016,519.446289 
	C162.547104,512.842346 173.097198,506.691284 183.862823,500.273010 
	C190.804703,496.358887 197.531036,492.712067 204.605164,489.016632 
	C205.943161,490.762329 207.783157,492.557312 207.781769,494.350861 
	C207.774353,503.958618 206.901062,513.573730 207.083725,523.171936 
	C207.478027,543.890686 208.522293,564.596985 208.913223,585.315796 
	C209.088074,594.582092 208.412552,603.870422 207.909760,613.137268 
	C207.830795,614.592407 206.985764,616.467896 205.864975,617.330200 
	C198.167206,623.252563 190.360382,629.039124 182.455765,634.683411 
	C179.966339,636.460876 179.555313,638.228333 179.740067,641.321899 
	C180.264938,650.110840 179.986008,658.948669 179.995804,667.767212 
	C180.009857,680.414185 180.070175,693.061768 179.951111,705.707642 
	C179.920181,708.992065 179.295914,712.270996 178.897766,716.009888 
	C160.724197,706.135315 142.597031,695.803345 124.236008,685.215576 
z"/>
<path fill="#F98201" opacity="1.000000" stroke="none" 
	d="
M239.169250,381.464813 
	C239.112839,343.265625 239.055984,305.066406 239.000717,266.867218 
	C238.995422,263.213196 239.130310,259.552277 238.938049,255.908386 
	C238.857086,254.373901 238.095016,252.875351 237.291275,251.164825 
	C247.669357,244.691238 258.365540,238.355728 269.136139,232.149338 
	C283.808563,223.694595 298.537750,215.338364 313.610626,207.358597 
	C313.985809,213.262482 313.992950,218.747650 314.000000,224.232819 
	C314.048981,262.295349 314.097900,300.357849 313.930450,338.666809 
	C288.865814,353.097107 264.017517,367.280945 239.169250,381.464813 
z"/>
<path fill="#F99201" opacity="1.000000" stroke="none" 
	d="
M602.047363,843.133179 
	C584.713318,853.192444 567.390564,863.271118 550.039917,873.301636 
	C543.007385,877.367126 535.914368,881.327881 528.457520,884.933350 
	C528.044189,844.282166 528.048279,804.033936 527.948730,763.785889 
	C527.941040,760.680603 527.204712,757.577209 527.034302,754.241028 
	C534.037964,750.097534 540.792480,746.147522 547.594910,742.281921 
	C565.386353,732.171509 583.198730,722.098083 601.055786,712.424683 
	C601.405884,715.125977 601.958252,717.412170 601.961975,719.699219 
	C602.029907,760.843811 602.031494,801.988525 602.047363,843.133179 
z"/>
<path fill="#F99B01" opacity="1.000000" stroke="none" 
	d="
M526.807007,754.472900 
	C527.204712,757.577209 527.941040,760.680603 527.948730,763.785889 
	C528.048279,804.033936 528.044189,844.282166 528.105286,885.039612 
	C510.391205,895.273438 492.466888,895.020874 474.575317,886.126465 
	C468.320404,883.016968 462.390411,879.253845 456.136780,875.039124 
	C455.974335,833.316956 455.952209,792.344788 456.097626,751.373169 
	C456.105347,749.202515 457.528961,747.036865 458.629120,744.925232 
	C471.667603,752.239868 484.434204,759.390320 497.026642,766.835205 
	C500.032959,768.612671 502.218872,768.478516 505.115021,766.737671 
	C512.231812,762.460022 519.562439,758.537964 526.807007,754.472900 
z"/>
<path fill="#F97D01" opacity="1.000000" stroke="none" 
	d="
M748.488525,759.341431 
	C748.092346,720.744507 748.079773,682.050720 747.956970,643.357239 
	C747.941772,638.585815 747.338257,633.816162 747.265747,628.390137 
	C757.341248,622.070068 767.158508,616.405579 777.696838,610.325073 
	C773.558960,607.937683 769.990051,605.883118 766.425476,603.821228 
	C745.246460,591.570679 724.068481,579.318420 702.961548,566.718872 
	C703.451233,565.886292 703.777283,565.241577 704.300964,564.940369 
	C718.324036,556.874268 732.395935,548.892761 746.393860,540.783691 
	C752.356384,537.329590 758.171509,533.621155 764.053589,530.028320 
	C770.496826,526.466736 776.940063,522.905151 783.695068,519.212524 
	C784.337891,529.516235 784.939453,539.950562 784.955383,550.385803 
	C785.046997,610.436523 784.991455,670.487366 785.035828,730.538208 
	C785.037415,732.628113 785.567505,734.717651 786.239563,737.071472 
	C774.031433,744.638611 761.434998,751.941650 748.488525,759.341431 
z"/>
<path fill="#F98901" opacity="1.000000" stroke="none" 
	d="
M314.146820,338.420380 
	C314.097900,300.357849 314.048981,262.295349 314.000000,224.232819 
	C313.992950,218.747650 313.985809,213.262482 313.963379,207.295792 
	C330.855042,197.000366 347.757996,187.179474 364.672150,177.377899 
	C368.484406,175.168747 372.335724,173.026962 376.690765,171.182999 
	C377.475006,173.464401 377.964539,175.416733 377.966522,177.369568 
	C378.008942,218.852600 377.996613,260.335693 377.670288,301.994446 
	C374.664246,303.611084 371.942841,304.982819 369.307800,306.504120 
	C350.910828,317.125549 332.531677,327.777924 314.146820,338.420380 
z"/>
<path fill="#F98B01" opacity="1.000000" stroke="none" 
	d="
M602.399170,843.076416 
	C602.031494,801.988525 602.029907,760.843811 601.961975,719.699219 
	C601.958252,717.412170 601.405884,715.125977 601.266968,712.153931 
	C607.095093,708.234558 612.763855,704.998535 618.435242,701.767151 
	C633.959656,692.921814 649.485229,684.078430 665.010376,675.234314 
	C665.006958,716.677612 664.984802,758.120972 665.057129,799.564087 
	C665.060608,801.556091 663.663208,804.555664 667.909668,805.077271 
	C652.510986,814.150574 636.651917,823.141724 620.843140,832.220520 
	C614.753540,835.717651 608.778320,839.414062 602.399170,843.076416 
z"/>
<path fill="#F9AD01" opacity="1.000000" stroke="none" 
	d="
M342.856567,810.472351 
	C323.637848,799.598633 304.420227,788.723022 285.197968,777.855591 
	C283.906738,777.125549 282.580170,776.458069 281.124268,774.979797 
	C280.985657,733.005859 280.976257,691.813538 281.044769,650.621338 
	C281.048523,648.358765 281.700470,646.097290 282.397980,643.904175 
	C285.451294,645.744141 288.070435,647.668396 290.877655,649.261230 
	C308.636902,659.338135 326.437775,669.341675 344.164337,679.874390 
	C344.069153,718.468994 344.077942,756.558716 343.949860,794.648071 
	C343.932098,799.924011 343.237701,805.197632 342.856567,810.472351 
z"/>
<path fill="#F9AD01" opacity="1.000000" stroke="none" 
	d="
M646.080017,182.740784 
	C663.541504,192.632095 681.005615,202.518631 698.461853,212.419250 
	C701.492554,214.138168 704.489441,215.916687 707.750366,218.340576 
	C707.665833,222.293228 707.049561,225.572418 707.043396,228.852737 
	C706.974670,265.581177 707.002747,302.309814 706.995544,339.038391 
	C706.994873,342.464447 706.931091,345.890503 706.544800,349.235535 
	C686.090576,337.555237 665.988342,325.955994 645.917358,313.906677 
	C645.632690,311.000275 645.026245,308.541870 645.044128,306.087982 
	C645.343262,264.971924 645.720276,223.856430 646.080017,182.740784 
z"/>
<path fill="#F9A101" opacity="1.000000" stroke="none" 
	d="
M458.293396,744.868896 
	C457.528961,747.036865 456.105347,749.202515 456.097626,751.373169 
	C455.952209,792.344788 455.974335,833.316956 455.933197,874.775391 
	C437.113220,864.573181 418.321533,853.884644 399.266724,842.527466 
	C399.335754,835.906494 399.937531,829.954895 399.955078,824.001587 
	C400.049957,791.856567 400.025665,759.711182 399.961121,727.566040 
	C399.954498,724.276855 399.134918,720.981995 399.214874,717.702576 
	C399.261475,715.791931 400.346893,713.906677 401.311523,712.072388 
	C420.536591,723.046082 439.414978,733.957520 458.293396,744.868896 
z"/>
<path fill="#F99201" opacity="1.000000" stroke="none" 
	d="
M377.994904,301.818787 
	C377.996613,260.335693 378.008942,218.852600 377.966522,177.369568 
	C377.964539,175.416733 377.475006,173.464401 377.041748,171.104630 
	C395.303680,160.055130 413.736359,149.412811 432.591797,139.123642 
	C433.343262,141.918808 433.954681,144.360397 433.958527,146.802933 
	C434.018951,185.161102 433.968018,223.519501 434.086060,261.877380 
	C434.092926,264.103973 435.324219,266.326843 435.702240,268.786804 
	C416.277496,279.954376 397.136200,290.886597 377.994904,301.818787 
z"/>
<path fill="#F9B300" opacity="1.000000" stroke="none" 
	d="
M706.896606,349.316559 
	C706.931091,345.890503 706.994873,342.464447 706.995544,339.038391 
	C707.002747,302.309814 706.974670,265.581177 707.043396,228.852737 
	C707.049561,225.572418 707.665833,222.293228 707.998596,218.584625 
	C726.216003,228.525192 744.433655,238.894638 762.857300,249.524780 
	C763.042236,291.130920 763.036438,332.476379 762.954651,373.821686 
	C762.950562,375.882904 762.287109,377.942810 761.221313,380.167572 
	C742.640198,369.993378 724.768372,359.654968 706.896606,349.316559 
z"/>
<path fill="#F9A701" opacity="1.000000" stroke="none" 
	d="
M400.964905,712.010010 
	C400.346893,713.906677 399.261475,715.791931 399.214874,717.702576 
	C399.134918,720.981995 399.954498,724.276855 399.961121,727.566040 
	C400.025665,759.711182 400.049957,791.856567 399.955078,824.001587 
	C399.937531,829.954895 399.335754,835.906494 399.005432,842.289124 
	C380.431488,832.134949 361.855743,821.550476 343.068268,810.719238 
	C343.237701,805.197632 343.932098,799.924011 343.949860,794.648071 
	C344.077942,756.558716 344.069153,718.468994 344.510193,679.994751 
	C363.599426,690.410156 382.282166,701.210083 400.964905,712.010010 
z"/>
<path fill="#F9A701" opacity="1.000000" stroke="none" 
	d="
M645.883057,182.475021 
	C645.720276,223.856430 645.343262,264.971924 645.044128,306.087982 
	C645.026245,308.541870 645.632690,311.000275 645.567871,313.814026 
	C627.036133,303.697083 608.885071,293.222656 590.801025,282.277069 
	C590.578735,274.184082 590.002991,266.560547 590.048828,258.940765 
	C590.265015,222.995575 590.651367,187.051437 590.977112,151.106918 
	C609.213440,161.474350 627.449768,171.841797 645.883057,182.475021 
z"/>
<path fill="#F99801" opacity="1.000000" stroke="none" 
	d="
M435.985718,268.551453 
	C435.324219,266.326843 434.092926,264.103973 434.086060,261.877380 
	C433.968018,223.519501 434.018951,185.161102 433.958527,146.802933 
	C433.954681,144.360397 433.343262,141.918808 432.943848,139.031036 
	C447.661957,130.095245 462.384613,121.486244 477.291168,113.208359 
	C480.553589,111.396683 484.471527,110.765442 488.522278,110.087234 
	C488.977570,153.079178 488.998138,195.574478 488.821655,238.344940 
	C471.078308,248.597244 453.531982,258.574341 435.985718,268.551453 
z"/>
<path fill="#F9B300" opacity="1.000000" stroke="none" 
	d="
M282.050720,643.835266 
	C281.700470,646.097290 281.048523,648.358765 281.044769,650.621338 
	C280.976257,691.813538 280.985657,733.005859 280.960480,774.677612 
	C262.725494,764.733948 244.508530,754.310791 226.082611,743.637817 
	C226.249100,740.441895 226.946213,737.496338 226.951431,734.549683 
	C227.023056,694.067627 226.999329,653.585449 227.329559,612.712952 
	C245.790314,622.826843 263.920532,633.331055 282.050720,643.835266 
z"/>
<path fill="#F99B01" opacity="1.000000" stroke="none" 
	d="
M489.018707,238.069763 
	C488.998138,195.574478 488.977570,153.079178 488.930298,110.083336 
	C505.433105,105.297195 520.296021,109.662422 534.300171,118.375687 
	C537.037964,120.079094 539.674988,121.944298 542.679260,124.344376 
	C543.000000,165.811829 543.033508,206.669876 542.907104,247.527420 
	C542.900330,249.712601 541.546814,251.893616 540.469299,254.074280 
	C530.530762,248.545593 520.564453,243.570023 511.474487,237.319946 
	C504.091705,232.243698 497.732819,231.217972 490.828156,237.336975 
	C490.369080,237.743820 489.628418,237.832901 489.018707,238.069763 
z"/>
<path fill="#F9A101" opacity="1.000000" stroke="none" 
	d="
M540.820251,254.076569 
	C541.546814,251.893616 542.900330,249.712601 542.907104,247.527420 
	C543.033508,206.669876 543.000000,165.811829 542.999878,124.486603 
	C544.486267,124.624855 546.063293,125.071709 547.445190,125.860451 
	C561.827515,134.069397 576.178528,142.333237 590.757690,150.844391 
	C590.651367,187.051437 590.265015,222.995575 590.048828,258.940765 
	C590.002991,266.560547 590.578735,274.184082 590.443970,282.168762 
	C573.619995,273.046631 557.220154,263.561615 540.820251,254.076569 
z"/>
<path fill="#F9C601" opacity="1.000000" stroke="none" 
	d="
M893.465332,456.236694 
	C893.077454,413.901764 893.033875,371.479980 893.030823,329.058197 
	C893.030701,327.935028 893.470398,326.811859 893.874512,325.298767 
	C905.274597,331.396332 917.160767,336.977539 927.614014,344.539459 
	C960.224121,368.129944 957.987915,417.523804 923.682678,438.948578 
	C913.944275,445.030548 903.782715,450.434814 893.465332,456.236694 
z"/>
<path fill="#FFFEFE" opacity="1.000000" stroke="none" 
	d="
M540.469299,254.074280 
	C557.220154,263.561615 573.619995,273.046631 590.376953,282.639954 
	C608.885071,293.222656 627.036133,303.697083 645.536621,314.264130 
	C665.988342,325.955994 686.090576,337.555237 706.544739,349.235535 
	C724.768372,359.654968 742.640198,369.993378 760.819946,380.428711 
	C766.345581,383.646515 771.563171,386.767365 777.555969,390.351898 
	C769.413879,395.082458 761.811523,399.499420 753.632935,404.259949 
	C737.263550,413.626892 721.483643,422.673767 705.657410,431.638885 
	C703.987488,432.584808 702.045044,433.049683 700.012573,433.470734 
	C669.858337,416.152802 639.920715,399.101868 609.772827,381.782227 
	C589.088135,369.844330 568.613708,358.175171 547.919189,346.271301 
	C540.901062,342.159790 534.263184,337.962769 527.273743,334.468933 
	C509.475159,325.571808 491.642120,325.635559 473.660156,335.169739 
	C451.150269,347.939209 428.988312,360.701294 406.478455,373.575775 
	C402.512970,375.736084 398.882019,377.760651 395.280060,379.835602 
	C372.518921,392.947784 349.764191,406.071136 326.674133,419.256165 
	C317.558746,424.216125 308.776550,429.110687 299.754944,433.765533 
	C287.448303,426.593689 275.403870,419.621460 263.307098,412.741180 
	C252.233765,406.442932 241.103882,400.244110 229.998901,394.001495 
	C228.405670,392.876831 226.812439,391.752167 224.629364,390.211121 
	C229.527542,387.335358 234.124420,384.636475 238.945267,381.701233 
	C264.017517,367.280945 288.865814,353.097107 313.930450,338.666809 
	C332.531677,327.777924 350.910828,317.125549 369.307800,306.504120 
	C371.942841,304.982819 374.664246,303.611084 377.670288,301.994476 
	C397.136200,290.886597 416.277496,279.954376 435.702209,268.786804 
	C453.531982,258.574341 471.078308,248.597244 488.821655,238.344940 
	C489.628418,237.832901 490.369080,237.743820 490.828156,237.336975 
	C497.732819,231.217972 504.091705,232.243698 511.474487,237.319946 
	C520.564453,243.570023 530.530762,248.545593 540.469299,254.074280 
z"/>
<path fill="#F98201" opacity="1.000000" stroke="none" 
	d="
M229.988678,394.424500 
	C241.103882,400.244110 252.233765,406.442932 263.307098,412.741180 
	C275.403870,419.621460 287.448303,426.593689 299.552979,434.038513 
	C291.054169,439.378815 282.473846,444.130737 273.997498,449.061462 
	C268.574615,452.215881 263.305298,455.634369 257.967133,458.934479 
	C251.150711,462.619293 244.352539,466.338501 237.507187,469.968781 
	C235.340424,471.117889 233.047714,472.029510 230.442581,473.056458 
	C229.715210,467.777466 229.088104,462.493774 229.049805,457.205811 
	C228.920609,439.374695 228.956284,421.541809 229.044464,403.710175 
	C229.059097,400.754486 229.652527,397.801666 229.988678,394.424500 
z"/>
<path fill="#F98201" opacity="1.000000" stroke="none" 
	d="
M229.687027,473.051270 
	C228.940125,474.033600 227.822861,474.995422 226.363495,476.001068 
	C227.119827,475.040192 228.218246,474.035461 229.687027,473.051270 
z"/>
<path fill="#F9B300" opacity="1.000000" stroke="none" 
	d="
M700.229065,433.737732 
	C702.045044,433.049683 703.987488,432.584808 705.657410,431.638885 
	C721.483643,422.673767 737.263550,413.626892 753.402222,404.490417 
	C754.165100,406.792175 754.941467,409.206360 754.946289,411.622131 
	C755.022766,449.649017 755.000000,487.676117 755.000000,525.703186 
	C755.000000,527.633545 755.000000,529.563965 755.000000,531.959839 
	C758.246582,531.190979 760.742432,530.599915 763.645935,530.018616 
	C758.171509,533.621155 752.356384,537.329590 746.393860,540.783691 
	C732.395935,548.892761 718.324036,556.874268 704.300964,564.940369 
	C703.777283,565.241577 703.451233,565.886292 702.591309,566.700806 
	C698.097412,568.956787 694.045227,570.882812 689.994934,572.353516 
	C689.997070,528.264099 689.997314,484.630188 690.197021,440.721344 
	C693.674072,438.210205 696.951599,435.973969 700.229065,433.737732 
z"/>
<path fill="#FFFEFE" opacity="1.000000" stroke="none" 
	d="
M689.993042,572.808899 
	C694.045227,570.882812 698.097412,568.956787 702.519897,567.048767 
	C724.068481,579.318420 745.246460,591.570679 766.425476,603.821228 
	C769.990051,605.883118 773.558960,607.937683 777.696838,610.325073 
	C767.158508,616.405579 757.341248,622.070068 747.265808,627.974548 
	C719.846558,643.726440 692.685425,659.238403 665.267334,674.992310 
	C649.485229,684.078430 633.959656,692.921814 618.435242,701.767151 
	C612.763855,704.998535 607.095093,708.234558 601.213928,711.739136 
	C583.198730,722.098083 565.386353,732.171509 547.594910,742.281921 
	C540.792480,746.147522 534.037964,750.097534 527.034302,754.241028 
	C519.562439,758.537964 512.231812,762.460022 505.115021,766.737671 
	C502.218872,768.478516 500.032959,768.612671 497.026642,766.835205 
	C484.434204,759.390320 471.667603,752.239868 458.629089,744.925232 
	C439.414978,733.957520 420.536591,723.046082 401.311523,712.072388 
	C382.282166,701.210083 363.599426,690.410156 344.570801,679.489746 
	C326.437775,669.341675 308.636902,659.338135 290.877655,649.261230 
	C288.070435,647.668396 285.451294,645.744141 282.397980,643.904175 
	C263.920532,633.331055 245.790314,622.826843 227.327332,612.256226 
	C226.395538,611.643494 225.796539,611.097290 224.698410,610.095886 
	C237.470261,602.727478 249.980026,595.510315 263.076904,587.984497 
	C276.121307,580.673828 288.578644,573.671875 301.329620,566.875366 
	C304.207520,568.579773 306.783752,570.092712 309.377167,571.575623 
	C337.899841,587.884766 366.425171,604.189148 395.220398,620.749207 
	C416.275879,632.795044 437.060730,644.586487 458.060120,656.628784 
	C463.447235,659.850647 468.511688,663.032654 473.813721,665.751282 
	C487.285583,672.658936 501.335083,674.930664 516.477722,670.281860 
	C519.067627,669.531616 521.449646,669.119934 523.435242,668.003357 
	C539.328552,659.065186 555.146973,649.993835 571.334106,640.909058 
	C589.911438,630.301025 608.143005,619.747131 626.713135,609.135620 
	C648.032043,596.988281 669.012573,584.898621 689.993042,572.808899 
z"/>
<path fill="#F9B300" opacity="1.000000" stroke="none" 
	d="
M301.035950,566.669983 
	C288.578644,573.671875 276.121307,580.673828 263.331726,587.742188 
	C262.999634,578.665833 263.072357,569.522339 262.986877,560.380371 
	C262.687286,528.340149 262.288849,496.300690 262.075684,464.259949 
	C262.056641,461.401123 261.237122,459.926270 258.222534,459.231873 
	C263.305298,455.634369 268.574615,452.215881 273.997498,449.061462 
	C282.473846,444.130737 291.054169,439.378815 299.792389,434.278198 
	C308.776550,429.110687 317.558746,424.216125 326.672272,419.711609 
	C327.000854,463.729889 326.998108,507.358124 326.682251,551.131470 
	C323.786194,552.754333 321.163391,554.167236 318.628265,555.722961 
	C312.741669,559.335327 306.897400,563.016663 301.035950,566.669983 
z"/>
<path fill="#F9A101" opacity="1.000000" stroke="none" 
	d="
M406.826355,373.463379 
	C428.988312,360.701294 451.150269,347.939209 473.701599,335.515137 
	C477.605835,342.985687 480.384857,350.619141 484.815796,357.128082 
	C490.787262,365.900024 492.167053,375.334167 492.023010,385.412445 
	C492.004028,386.742584 492.293823,388.077179 492.440613,389.409698 
	C492.837189,389.404541 493.233765,389.399384 493.630310,389.394226 
	C493.898895,386.370453 494.167450,383.346710 494.436005,380.322937 
	C495.004761,380.271057 495.573486,380.219208 496.142212,380.167328 
	C496.760345,382.428619 497.634796,384.657410 497.926727,386.960052 
	C498.238068,389.415741 497.999268,391.941254 497.999908,394.436279 
	C498.005096,414.144348 498.010162,433.852386 497.786621,453.771301 
	C472.195618,468.454559 446.824890,482.912506 421.489990,497.432861 
	C419.844666,498.375824 418.474335,499.798584 416.605560,501.005127 
	C412.492432,502.676758 408.749878,504.341431 405.060303,505.652130 
	C408.569336,502.831085 409.184692,499.420197 409.069153,495.359741 
	C408.573639,477.951477 408.184479,460.537201 408.039062,443.122711 
	C407.871124,423.008392 408.049866,402.891357 407.947540,382.776154 
	C407.931763,379.670074 407.217590,376.567566 406.826355,373.463379 
z"/>
<path fill="#F9AB00" opacity="1.000000" stroke="none" 
	d="
M406.478455,373.575806 
	C407.217590,376.567566 407.931763,379.670074 407.947540,382.776154 
	C408.049866,402.891357 407.871124,423.008392 408.039062,443.122711 
	C408.184479,460.537201 408.573639,477.951477 409.069153,495.359741 
	C409.184692,499.420197 408.569336,502.831085 405.056793,505.649170 
	C405.000275,506.000183 405.004181,506.007111 404.649597,506.009674 
	C403.530396,506.675629 402.765808,507.339020 401.806488,508.272522 
	C399.405304,510.023224 397.198853,511.503815 394.636688,513.024902 
	C387.646332,516.743225 380.986145,520.375916 374.382172,524.107971 
	C358.572479,533.042542 342.789215,542.023865 326.995331,550.986389 
	C326.998108,507.358124 327.000854,463.729889 327.005463,419.646179 
	C349.764191,406.071136 372.518921,392.947784 395.280060,379.835602 
	C398.882019,377.760651 402.512970,375.736084 406.478455,373.575806 
z"/>
<path fill="#F99201" opacity="1.000000" stroke="none" 
	d="
M548.139282,346.505981 
	C568.613708,358.175171 589.088135,369.844330 609.778564,382.247437 
	C609.996338,414.518127 609.953491,446.055054 610.086487,477.591278 
	C610.096863,480.065948 611.333374,482.535431 611.801758,485.281250 
	C607.509583,487.981110 603.532837,490.640198 599.290771,492.771210 
	C594.513916,495.170959 589.498047,497.094788 584.252258,499.162354 
	C571.615295,491.980469 559.312195,484.861847 547.006775,477.324707 
	C547.336304,469.145416 547.924438,461.385712 547.956177,453.623749 
	C548.102112,417.918152 548.092896,382.211975 548.139282,346.505981 
z"/>
<path fill="#F99801" opacity="1.000000" stroke="none" 
	d="
M547.919189,346.271271 
	C548.092896,382.211975 548.102112,417.918152 547.956177,453.623749 
	C547.924438,461.385712 547.336304,469.145416 546.675110,477.264587 
	C532.494324,469.693024 518.696350,461.666229 504.724518,453.954285 
	C502.954803,452.977478 500.273956,453.651337 498.015228,453.560455 
	C498.010162,433.852386 498.005096,414.144348 497.999908,394.436279 
	C497.999268,391.941254 498.238068,389.415741 497.926727,386.960052 
	C497.634796,384.657410 496.760345,382.428619 496.142212,380.167328 
	C495.573486,380.219208 495.004761,380.271057 494.436005,380.322937 
	C494.167450,383.346710 493.898895,386.370453 493.630310,389.394226 
	C493.233765,389.399384 492.837189,389.404541 492.440613,389.409698 
	C492.293823,388.077179 492.004028,386.742584 492.023010,385.412445 
	C492.167053,375.334167 490.787262,365.900024 484.815796,357.128082 
	C480.384857,350.619141 477.605835,342.985687 474.049500,335.507782 
	C491.642120,325.635559 509.475159,325.571808 527.273743,334.468933 
	C534.263184,337.962769 540.901062,342.159790 547.919189,346.271271 
z"/>
<path fill="#F98B01" opacity="1.000000" stroke="none" 
	d="
M612.000061,485.007355 
	C611.333374,482.535431 610.096863,480.065948 610.086487,477.591278 
	C609.953491,446.055054 609.996338,414.518127 609.988770,382.516174 
	C639.920715,399.101868 669.858337,416.152802 700.012573,433.470764 
	C696.951599,435.973969 693.674072,438.210205 689.877563,440.859528 
	C675.703918,448.965851 662.011597,456.593597 648.413330,464.385315 
	C643.163330,467.393555 638.126587,470.773926 632.695435,474.008789 
	C631.931274,474.353516 631.464417,474.674194 630.657837,475.028137 
	C628.876404,476.036682 627.434631,477.011902 625.633484,478.026886 
	C620.849487,480.380219 616.424744,482.693787 612.000061,485.007355 
z"/>
<path fill="#F9AB00" opacity="1.000000" stroke="none" 
	d="
M632.992676,473.984741 
	C638.126587,470.773926 643.163330,467.393555 648.413330,464.385315 
	C662.011597,456.593597 675.703918,448.965851 689.678101,441.134430 
	C689.997314,484.630188 689.997070,528.264099 689.994934,572.353516 
	C669.012573,584.898621 648.032043,596.988281 626.356567,608.867126 
	C625.440979,606.705811 625.030151,604.755554 625.028137,602.804932 
	C624.989807,566.151550 624.962708,529.498047 625.044067,492.844818 
	C625.055054,487.891571 625.661865,482.939667 625.992798,477.987122 
	C627.434631,477.011902 628.876404,476.036682 630.829468,475.258362 
	C631.891479,474.965118 632.442078,474.474915 632.992676,473.984741 
z"/>
<path fill="#F99201" opacity="1.000000" stroke="none" 
	d="
M394.992371,512.984375 
	C397.198853,511.503815 399.405304,510.023224 402.127319,508.245972 
	C403.429993,507.301941 404.217102,506.654541 405.004181,506.007111 
	C405.004181,506.007111 405.000275,506.000183 405.003784,506.003143 
	C408.749878,504.341431 412.492432,502.676758 416.935486,501.111572 
	C431.421509,509.204834 445.207062,517.198608 458.994568,525.649048 
	C458.997650,567.100464 459.018463,608.095459 458.950623,649.090210 
	C458.946594,651.520020 458.230408,653.948730 457.845612,656.377930 
	C437.060730,644.586487 416.275879,632.795044 395.665161,620.519165 
	C396.226074,618.491089 396.947144,616.948181 396.950256,615.403809 
	C397.015564,583.016113 397.031006,550.628113 396.914276,518.240662 
	C396.907928,516.486267 395.661530,514.736389 394.992371,512.984375 
z"/>
<path fill="#F9A101" opacity="1.000000" stroke="none" 
	d="
M570.988342,640.963257 
	C555.146973,649.993835 539.328552,659.065186 523.435242,668.003357 
	C521.449646,669.119934 519.067627,669.531616 516.413452,669.844971 
	C515.638428,666.970886 515.044434,664.522034 515.041016,662.072449 
	C514.984192,621.790649 515.001831,581.508728 515.262939,540.988037 
	C533.663818,530.432800 551.804382,520.116272 570.104919,510.200012 
	C570.509888,512.390991 570.967285,514.181519 570.968811,515.972412 
	C571.005188,557.636047 570.992188,599.299622 570.988342,640.963257 
z"/>
<path fill="#F99801" opacity="1.000000" stroke="none" 
	d="
M515.002747,541.226868 
	C515.001831,581.508728 514.984192,621.790649 515.041016,662.072449 
	C515.044434,664.522034 515.638428,666.970886 516.021851,669.856934 
	C501.335083,674.930664 487.285583,672.658936 473.813721,665.751282 
	C468.511688,663.032654 463.447235,659.850647 458.060120,656.628784 
	C458.230408,653.948730 458.946594,651.520020 458.950623,649.090210 
	C459.018463,608.095459 458.997650,567.100464 459.326660,525.717896 
	C472.375641,532.612854 485.042419,539.989868 497.878784,547.058899 
	C499.488495,547.945435 502.250916,547.830078 504.029663,547.093384 
	C507.843140,545.513977 511.362762,543.225159 515.002747,541.226868 
z"/>
<path fill="#F9A701" opacity="1.000000" stroke="none" 
	d="
M571.334106,640.909058 
	C570.992188,599.299622 571.005188,557.636047 570.968811,515.972412 
	C570.967285,514.181519 570.509888,512.390991 570.310669,509.935242 
	C574.504150,506.873596 578.698547,504.552185 582.761292,502.019501 
	C583.617432,501.485809 583.990479,500.177185 584.586121,499.225616 
	C589.498047,497.094788 594.513916,495.170959 599.290771,492.771210 
	C603.532837,490.640198 607.509583,487.981110 611.801758,485.281250 
	C616.424744,482.693787 620.849487,480.380219 625.633484,478.026855 
	C625.661865,482.939667 625.055054,487.891571 625.044067,492.844818 
	C624.962708,529.498047 624.989807,566.151550 625.028137,602.804932 
	C625.030151,604.755554 625.440979,606.705811 626.018066,608.924683 
	C608.143005,619.747131 589.911438,630.301025 571.334106,640.909058 
z"/>
<path fill="#F98B01" opacity="1.000000" stroke="none" 
	d="
M394.636658,513.024902 
	C395.661530,514.736389 396.907928,516.486267 396.914276,518.240662 
	C397.031006,550.628113 397.015564,583.016113 396.950256,615.403809 
	C396.947144,616.948181 396.226074,618.491089 395.394562,620.264771 
	C366.425171,604.189148 337.899841,587.884766 309.377167,571.575623 
	C306.783752,570.092712 304.207520,568.579773 301.329620,566.875366 
	C306.897400,563.016663 312.741669,559.335327 318.628265,555.722961 
	C321.163391,554.167236 323.786194,552.754333 326.682251,551.131470 
	C342.789215,542.023865 358.572479,533.042542 374.382172,524.107971 
	C380.986145,520.375916 387.646332,516.743225 394.636658,513.024902 
z"/>
<path fill="#FFFEFE" opacity="1.000000" stroke="none" 
	d="
M584.252258,499.162354 
	C583.990479,500.177185 583.617432,501.485809 582.761292,502.019501 
	C578.698547,504.552185 574.504150,506.873596 570.150757,509.535004 
	C551.804382,520.116272 533.663818,530.432800 515.262939,540.988037 
	C511.362762,543.225159 507.843140,545.513977 504.029663,547.093384 
	C502.250916,547.830078 499.488495,547.945435 497.878784,547.058899 
	C485.042419,539.989868 472.375641,532.612854 459.324768,525.261353 
	C445.207062,517.198608 431.421509,509.204834 417.306030,501.104614 
	C418.474335,499.798584 419.844666,498.375824 421.489990,497.432861 
	C446.824890,482.912506 472.195618,468.454559 497.786621,453.771301 
	C500.273956,453.651337 502.954803,452.977478 504.724518,453.954285 
	C518.696350,461.666229 532.494324,469.693024 546.677429,477.683105 
	C559.312195,484.861847 571.615295,491.980469 584.252258,499.162354 
z"/>
<path fill="#F9A101" opacity="1.000000" stroke="none" 
	d="
M404.649597,506.009674 
	C404.217102,506.654541 403.429993,507.301941 402.322083,507.975891 
	C402.765808,507.339020 403.530396,506.675629 404.649597,506.009674 
z"/>
<path fill="#F9A701" opacity="1.000000" stroke="none" 
	d="
M632.695435,474.008789 
	C632.442078,474.474915 631.891479,474.965118 631.169189,475.225098 
	C631.464417,474.674194 631.931274,474.353516 632.695435,474.008789 
z"/>
</svg>