<svg version="1.1" id="Layer_1" xmlns="http://www.w3.org/2000/svg" xmlns:xlink="http://www.w3.org/1999/xlink" x="0px" y="0px"
	 width="100%" viewBox="0 0 3300 3300" enable-background="new 0 0 3300 3300" xml:space="preserve">
<path fill="#FFFFFF" opacity="1.000000" stroke="none" 
	d="
M1776.000000,3302.000000 
	C1184.000122,3302.000000 593.000366,3302.000000 2.000396,3302.000000 
	C2.000264,2202.000488 2.000264,1102.000977 2.000132,2.001134 
	C1101.999146,2.000756 2201.998291,2.000756 3301.998047,2.000378 
	C3301.998779,1101.998901 3301.998779,2201.997803 3301.999512,3301.998291 
	C2793.666748,3302.000000 2285.333252,3302.000000 1776.000000,3302.000000 
M1127.629639,528.023132 
	C1129.718872,526.373291 1131.805420,524.719849 1133.897949,523.074158 
	C1159.304077,503.093536 1184.594482,482.974518 1213.404053,467.863647 
	C1279.775269,433.051331 1351.068237,416.826630 1425.293945,412.349030 
	C1460.905396,410.200806 1496.530273,411.186981 1532.039795,415.655731 
	C1576.532837,421.255066 1619.802734,431.515991 1661.347168,448.470978 
	C1722.003296,473.225800 1774.672852,509.107666 1814.504517,561.841797 
	C1841.532593,597.624939 1862.559082,636.982422 1879.788086,678.346436 
	C1898.308716,722.811401 1906.596802,768.845825 1900.579956,817.015808 
	C1898.909790,830.387024 1901.659424,842.896423 1908.626831,854.385437 
	C1912.767578,861.213318 1916.995972,868.023926 1921.694702,874.470642 
	C1933.719238,890.968079 1947.792969,905.657043 1963.176636,919.008118 
	C1973.986938,928.390137 1985.312744,937.186462 1996.543701,946.073303 
	C2006.004639,953.559570 2015.063599,961.395142 2021.038452,972.098389 
	C2028.372681,985.236877 2027.692749,997.848022 2017.785645,1009.166870 
	C2012.384644,1015.337402 2005.759766,1020.721802 1998.882568,1025.234985 
	C1991.984253,1029.761963 1984.156128,1032.917236 1976.607910,1036.396606 
	C1967.836304,1040.440063 1962.487671,1046.724487 1963.967163,1056.708374 
	C1964.929810,1063.204590 1966.647705,1069.723389 1969.044312,1075.832886 
	C1971.211914,1081.358398 1974.906372,1086.266235 1977.670654,1091.579956 
	C1985.382202,1106.403198 1982.500610,1121.165894 1969.873657,1132.130493 
	C1968.366577,1133.439087 1966.700684,1134.562744 1965.150757,1135.824219 
	C1954.608521,1144.403809 1954.597778,1151.343140 1965.096558,1160.121094 
	C1978.833862,1171.606689 1981.897217,1187.347534 1973.293945,1202.941528 
	C1971.692993,1205.843262 1969.864380,1208.703369 1967.691772,1211.190308 
	C1960.373657,1219.566772 1957.341675,1229.520264 1955.726807,1240.289673 
	C1953.119019,1257.682129 1955.561523,1274.848633 1957.177612,1292.080566 
	C1960.121460,1323.469116 1947.721436,1342.511230 1921.600220,1352.888672 
	C1893.701050,1363.973022 1865.037109,1367.520020 1835.478760,1366.634033 
	C1817.166138,1366.084961 1798.861328,1365.260132 1780.555664,1364.495361 
	C1762.082764,1363.723877 1747.842773,1371.151733 1736.888550,1385.959839 
	C1726.453979,1400.065796 1718.965332,1415.529541 1713.781616,1432.186768 
	C1699.296875,1478.731812 1699.398804,1525.988525 1707.127319,1573.571899 
	C1714.716553,1620.296997 1730.214478,1664.455322 1750.992310,1706.835815 
	C1762.714966,1730.746338 1775.943848,1753.802490 1790.758667,1775.594238 
	C1826.967407,1774.192261 1968.218262,1754.894775 1989.908325,1742.435913 
	C1986.927246,1722.574585 1983.757080,1702.558472 1980.946167,1682.492065 
	C1975.493652,1643.565796 1970.562134,1604.577148 1969.744141,1565.208374 
	C1969.106079,1534.498657 1969.952026,1503.903809 1977.973022,1473.972290 
	C1984.115845,1451.048706 1994.178345,1430.373413 2011.865112,1413.894531 
	C2019.724854,1406.571411 2028.496216,1401.706665 2039.381226,1401.377319 
	C2048.346680,1401.105957 2057.334229,1400.637451 2066.284668,1400.977295 
	C2093.238037,1402.000244 2120.167236,1403.872803 2147.126709,1404.482178 
	C2178.180420,1405.184082 2208.002686,1398.925903 2236.386230,1386.074463 
	C2258.445068,1376.086426 2272.644287,1359.594360 2278.574951,1336.030762 
	C2281.977295,1322.512817 2281.475830,1308.985229 2279.117188,1295.401123 
	C2275.741699,1275.960327 2274.407715,1256.389038 2275.789062,1236.683594 
	C2276.695068,1223.755737 2280.285889,1212.334595 2290.117188,1202.670166 
	C2303.428467,1189.584351 2306.072021,1170.523315 2297.527588,1154.768188 
	C2294.435303,1149.066162 2289.476562,1144.253418 2284.867188,1139.524292 
	C2277.071777,1131.526123 2277.372314,1125.707642 2286.536865,1119.293701 
	C2287.899658,1118.340088 2289.359863,1117.526611 2290.747070,1116.606323 
	C2302.903809,1108.541138 2308.463623,1097.059692 2307.978760,1082.641479 
	C2307.565430,1070.353760 2303.170166,1059.324951 2297.046143,1048.794922 
	C2292.872559,1041.618530 2288.353760,1034.432861 2285.651367,1026.672607 
	C2283.195068,1019.618408 2282.541016,1011.819031 2281.922607,1004.280151 
	C2281.438965,998.385132 2283.760986,993.096863 2289.101074,989.796814 
	C2293.310303,987.195496 2297.510254,984.482788 2301.999023,982.447388 
	C2318.805176,974.826904 2334.883545,966.154297 2347.227539,951.996216 
	C2360.881348,936.336121 2362.689941,917.795349 2351.308350,900.455017 
	C2346.253906,892.754700 2339.827393,885.717407 2333.025879,879.464417 
	C2325.209473,872.278259 2316.283447,866.300354 2307.847900,859.786560 
	C2275.274658,834.634583 2245.111816,807.085022 2220.837402,773.524292 
	C2204.482666,750.913147 2194.509277,726.555542 2198.162354,697.997986 
	C2198.541504,695.034241 2198.332275,691.999939 2198.596436,689.016174 
	C2201.961914,651.038574 2197.691650,613.905579 2186.457764,577.513184 
	C2170.463623,525.701477 2143.322998,479.648712 2113.688477,434.734802 
	C2073.316406,373.547180 2019.090454,328.681671 1953.646240,296.811584 
	C1883.514160,262.658539 1808.896851,245.800507 1731.469971,240.151764 
	C1692.509277,237.309357 1653.610352,238.089600 1614.690308,241.597504 
	C1554.697388,247.004761 1496.238525,259.291718 1439.452759,279.353180 
	C1401.065186,292.914825 1363.528564,308.586731 1329.357178,330.956268 
	C1265.363647,372.848358 1208.849365,423.344116 1159.838623,482.079437 
	C1147.704224,496.621490 1136.732544,512.133728 1124.333984,527.935364 
	C1124.366943,528.453430 1124.399780,528.971558 1124.432739,529.489563 
	C1125.053711,529.096252 1125.674805,528.702881 1127.629639,528.023132 
M1574.848755,688.113953 
	C1554.143188,671.696899 1531.966553,657.583069 1508.067261,646.316284 
	C1430.363281,609.684448 1349.182251,600.554260 1265.409912,618.204773 
	C1167.462524,638.841797 1088.809448,689.679321 1033.534790,773.789734 
	C984.647583,848.180298 968.840881,929.795776 986.131897,1017.330322 
	C993.694702,1055.616455 1009.552673,1090.792236 1028.810791,1124.512817 
	C1049.337402,1160.454468 1072.996338,1194.345947 1097.777710,1227.397827 
	C1117.934326,1254.281616 1129.980591,1283.901367 1132.941406,1317.291016 
	C1135.985840,1351.624756 1129.272949,1383.539185 1109.361328,1412.171021 
	C1107.501221,1414.845703 1105.655396,1417.530273 1103.633667,1420.455200 
	C1181.891968,1538.273926 1283.385132,1629.371948 1409.181152,1693.085693 
	C1480.517456,1729.216675 1555.702759,1753.709351 1635.102295,1766.390625 
	C1635.102295,1764.029541 1635.228760,1763.056641 1635.084351,1762.125732 
	C1625.753662,1702.008667 1603.889771,1646.646362 1571.553833,1595.302734 
	C1550.328247,1561.600220 1525.360474,1530.888184 1496.898926,1503.031250 
	C1479.186890,1485.695312 1469.367676,1464.628296 1468.336670,1439.973877 
	C1466.251953,1390.129517 1502.591064,1350.917114 1552.493286,1347.766968 
	C1571.408936,1346.572754 1590.351562,1344.721802 1609.059448,1341.763916 
	C1618.741577,1340.233032 1628.560059,1336.797729 1637.231079,1332.182861 
	C1659.162720,1320.510376 1672.303223,1302.880859 1670.241821,1276.582764 
	C1669.981689,1273.264526 1670.153564,1269.911377 1669.873901,1266.595703 
	C1668.406494,1249.198975 1673.795898,1235.699829 1689.511353,1226.121704 
	C1703.636963,1217.512451 1702.666138,1201.796021 1688.498291,1193.068726 
	C1686.804321,1192.025391 1684.951416,1191.240356 1683.173950,1190.332153 
	C1679.578979,1188.494995 1673.210815,1188.909546 1674.092163,1183.044556 
	C1674.821411,1178.191528 1680.623169,1179.369873 1684.237671,1178.619385 
	C1692.192627,1176.967529 1699.563721,1174.301392 1706.206543,1169.559692 
	C1714.916260,1163.342407 1719.875244,1148.654663 1709.680176,1138.164551 
	C1703.483154,1131.788208 1698.429932,1124.118896 1693.755127,1116.484009 
	C1685.636719,1103.225464 1686.113037,1103.214355 1698.180786,1092.909790 
	C1704.726685,1087.320435 1711.403687,1081.519043 1716.504883,1074.681641 
	C1726.162720,1061.737183 1723.971558,1047.933228 1711.564941,1037.568115 
	C1706.718628,1033.519409 1701.369507,1030.076782 1696.301514,1026.288696 
	C1662.249268,1000.836426 1648.248535,967.731689 1658.175171,925.655945 
	C1664.049438,900.756653 1665.552124,875.677368 1662.383789,850.271606 
	C1654.292725,785.392639 1627.270996,730.703613 1574.848755,688.113953 
M2203.387939,2501.507568 
	C2216.717529,2501.506836 2230.047363,2501.560059 2243.376709,2501.489502 
	C2255.477295,2501.425293 2258.306885,2498.729004 2258.309326,2486.985352 
	C2258.336426,2349.690186 2258.334473,2212.395264 2258.311279,2075.100098 
	C2258.309326,2063.300293 2255.401367,2060.371094 2243.599365,2060.331787 
	C2220.605957,2060.255371 2197.612305,2060.297363 2174.618652,2060.312744 
	C2160.791992,2060.322021 2160.121582,2060.781494 2154.957520,2073.889893 
	C2121.895996,2157.818115 2088.846680,2241.750732 2055.780029,2325.677002 
	C2054.360107,2329.280273 2052.807373,2332.831055 2050.399902,2338.604004 
	C2047.807617,2332.462891 2045.970093,2328.333008 2044.305908,2324.134766 
	C2011.064575,2240.277100 1977.849121,2156.409424 1944.610718,2072.551025 
	C1940.115967,2061.210938 1938.865601,2060.336182 1927.064453,2060.318359 
	C1903.404419,2060.282471 1879.744019,2060.243164 1856.084351,2060.337402 
	C1844.943604,2060.381836 1841.860840,2063.552490 1841.675659,2074.506592 
	C1841.641846,2076.505615 1841.671265,2078.505371 1841.672241,2080.504883 
	C1841.714966,2163.147949 1841.767700,2245.791016 1841.797363,2328.434082 
	C1841.816162,2380.752930 1841.789307,2433.071533 1841.808716,2485.390381 
	C1841.813843,2499.078613 1844.280151,2501.473389 1858.236694,2501.501221 
	C1871.566284,2501.528076 1884.895996,2501.510254 1898.225586,2501.507080 
	C1915.827393,2501.503174 1917.495728,2499.817383 1917.496094,2482.033203 
	C1917.498291,2391.058594 1917.489014,2300.083984 1917.542847,2209.109375 
	C1917.544678,2205.855713 1916.732056,2202.322998 1919.064087,2198.235596 
	C1920.513794,2201.517578 1921.477295,2203.600342 1922.362183,2205.716309 
	C1940.985229,2250.247314 1959.601440,2294.781494 1978.214844,2339.316406 
	C1988.869629,2364.809082 1999.574463,2390.281494 2010.125977,2415.816895 
	C2012.623169,2421.860352 2016.032471,2425.981934 2023.273193,2425.917480 
	C2041.266724,2425.757568 2059.262695,2425.846191 2077.257568,2425.871094 
	C2082.882812,2425.878906 2086.769287,2423.400391 2088.888916,2418.155762 
	C2089.886475,2415.687256 2090.984375,2413.259521 2092.013916,2410.803955 
	C2120.454834,2342.954346 2148.891113,2275.102783 2177.338379,2207.255859 
	C2178.427246,2204.658936 2179.615234,2202.103516 2180.757324,2199.528809 
	C2182.501953,2203.503418 2182.498535,2207.046875 2182.502197,2210.590332 
	C2182.594482,2301.228760 2182.687256,2391.866943 2182.780762,2482.505371 
	C2182.782959,2484.838135 2182.664307,2487.178955 2182.817383,2489.501953 
	C2183.354492,2497.653076 2186.490479,2500.868408 2194.514404,2501.469971 
	C2196.834473,2501.644043 2199.177734,2501.503662 2203.387939,2501.507568 
M2875.925781,2461.035400 
	C2880.726074,2466.111328 2885.195068,2471.557129 2890.381836,2476.201416 
	C2917.372803,2500.369629 2949.520020,2509.954590 2985.214111,2508.639648 
	C3022.796143,2507.255615 3053.282227,2492.062256 3075.378418,2461.151123 
	C3076.414795,2459.701416 3076.920410,2457.872559 3077.673340,2456.220215 
	C3078.781494,2467.739990 3078.688965,2477.378418 3078.805420,2487.014160 
	C3078.940674,2498.182861 3082.053467,2501.384521 3093.009033,2501.479248 
	C3106.666016,2501.597168 3120.324707,2501.510498 3133.982666,2501.506836 
	C3152.214111,2501.501709 3153.876465,2499.845703 3153.876953,2481.592041 
	C3153.880127,2348.010742 3153.878662,2214.429688 3153.878418,2080.848389 
	C3153.878418,2078.516602 3153.939209,2076.182129 3153.856689,2073.853271 
	C3153.512939,2064.138428 3150.123047,2060.463135 3140.564209,2060.364746 
	C3122.910400,2060.182617 3105.252441,2060.170898 3087.599121,2060.367188 
	C3078.075195,2060.472900 3074.684814,2064.203857 3074.320068,2073.909912 
	C3074.282715,2074.907959 3074.311523,2075.908447 3074.312744,2076.907959 
	C3074.367920,2120.545898 3074.435059,2164.183594 3074.443115,2207.821533 
	C3074.443359,2209.872314 3073.917480,2211.922852 3073.438477,2215.422363 
	C3060.859863,2199.788330 3046.045898,2189.990967 3028.664307,2184.116943 
	C3006.099121,2176.491211 2982.807861,2175.249756 2959.579102,2178.990723 
	C2908.579346,2187.204590 2874.120361,2216.834961 2854.099854,2263.770264 
	C2839.192871,2298.718506 2837.071289,2335.443604 2841.155518,2372.640137 
	C2844.667725,2404.626465 2854.972656,2434.240479 2875.925781,2461.035400 
M1332.668579,2440.287842 
	C1341.949829,2456.714111 1353.627075,2471.094238 1368.722656,2482.565186 
	C1396.349609,2503.558594 1427.831299,2510.649902 1461.880127,2508.251221 
	C1489.501099,2506.305420 1513.544312,2496.068604 1533.170410,2476.338379 
	C1538.904663,2470.573730 1543.896362,2464.070557 1549.813477,2457.229248 
	C1549.813477,2468.609131 1549.673584,2479.145752 1549.860474,2489.676758 
	C1549.995361,2497.268799 1553.287109,2501.238281 1560.478149,2501.370361 
	C1578.128662,2501.694824 1595.792847,2501.689453 1613.443726,2501.375977 
	C1620.647339,2501.247803 1623.824829,2497.281982 1624.170532,2489.754150 
	C1624.277344,2487.427002 1624.195068,2485.091064 1624.195068,2482.759033 
	C1624.195557,2409.467773 1624.195557,2336.176270 1624.195679,2262.885010 
	C1624.195923,2200.587402 1624.207275,2138.289795 1624.187256,2075.992188 
	C1624.183105,2062.984375 1621.515503,2060.358887 1608.334106,2060.322266 
	C1592.343384,2060.278076 1576.352295,2060.252686 1560.361816,2060.332031 
	C1548.421753,2060.391357 1545.404175,2063.242432 1545.407349,2074.951904 
	C1545.419189,2119.590332 1545.567017,2164.229004 1545.620239,2208.867432 
	C1545.622681,2210.911133 1545.199829,2212.955078 1544.796875,2216.620117 
	C1532.332397,2200.184814 1517.249634,2190.199463 1499.503052,2184.182129 
	C1476.606812,2176.418945 1453.000977,2175.278564 1429.438843,2179.143311 
	C1381.352173,2187.031006 1347.918579,2214.564453 1327.254517,2258.194092 
	C1317.591309,2278.596680 1312.552856,2300.297852 1310.850342,2322.671631 
	C1307.765137,2363.219238 1312.763794,2402.427734 1332.668579,2440.287842 
M350.088379,2507.131836 
	C357.400177,2507.599121 364.705750,2508.231201 372.024780,2508.506836 
	C423.789215,2510.458496 471.770081,2498.001221 515.272095,2469.744141 
	C526.392578,2462.520996 536.646423,2453.860840 546.763367,2445.233398 
	C552.970825,2439.940186 553.245422,2435.802979 548.771484,2429.469482 
	C539.353149,2416.137207 529.734741,2402.938232 519.873474,2389.930908 
	C514.730835,2383.147461 509.753143,2382.908203 502.747192,2388.259033 
	C499.571411,2390.684570 496.595123,2393.372803 493.403198,2395.775635 
	C464.612396,2417.450684 432.878601,2431.526367 396.526337,2434.715576 
	C334.427948,2440.163330 278.404114,2408.202881 252.233154,2351.509766 
	C237.604645,2319.820557 232.714279,2286.496582 238.192764,2252.062256 
	C246.435562,2200.253906 272.279327,2160.688965 321.340210,2139.031982 
	C353.441559,2124.861572 387.043091,2123.205322 421.146179,2131.086182 
	C447.485779,2137.173340 471.225983,2148.854248 493.188873,2164.445801 
	C501.695770,2170.484863 506.485626,2169.525391 512.182800,2160.853516 
	C520.595703,2148.047607 528.952271,2135.200928 537.083069,2122.215332 
	C541.530212,2115.112793 541.034058,2111.035400 534.477234,2105.715088 
	C526.992920,2099.642090 519.276062,2093.709229 511.051666,2088.718994 
	C459.422821,2057.392578 403.243774,2047.051392 344.003174,2055.947998 
	C266.768738,2067.547119 209.765915,2108.485107 175.388718,2178.985840 
	C152.567291,2225.787842 148.515442,2275.454346 157.746231,2326.255859 
	C175.589905,2424.458252 249.891708,2494.614014 350.088379,2507.131836 
M834.500427,2298.750244 
	C834.793030,2304.398438 835.333374,2310.046387 835.339844,2315.694824 
	C835.403564,2371.000000 835.376709,2426.304932 835.382935,2481.610107 
	C835.383301,2484.607666 835.256897,2487.622314 835.522400,2490.599365 
	C836.150208,2497.639404 839.247986,2501.265137 846.137085,2501.372559 
	C865.122437,2501.669434 884.118835,2501.665283 903.104004,2501.355957 
	C909.948242,2501.244629 913.214722,2497.428223 913.815430,2490.614014 
	C913.990417,2488.629639 913.873901,2486.618652 913.873962,2484.619873 
	C913.875488,2421.318848 914.106873,2358.016602 913.685791,2294.718262 
	C913.597839,2281.489258 912.206604,2268.045410 909.507996,2255.098389 
	C901.286438,2215.654297 878.412354,2189.121094 838.052856,2180.836426 
	C823.876099,2177.926025 808.883057,2177.173096 794.395996,2177.943115 
	C754.363037,2180.071045 722.594788,2198.058838 699.556824,2231.086670 
	C698.171204,2233.073242 696.630981,2234.951660 694.469727,2237.790771 
	C694.261108,2235.299316 694.109741,2234.352051 694.112671,2233.405273 
	C694.274292,2181.103027 694.476440,2128.801025 694.603455,2076.498779 
	C694.636963,2062.713379 692.167542,2060.350098 678.206482,2060.319824 
	C662.214722,2060.285400 646.222412,2060.242676 630.231140,2060.338379 
	C619.044067,2060.405273 615.962891,2063.525635 615.804443,2074.465820 
	C615.780334,2076.131348 615.802979,2077.797607 615.802979,2079.463379 
	C615.803467,2202.400391 615.803833,2325.337646 615.804321,2448.274658 
	C615.804382,2461.601074 615.707275,2474.928711 615.837402,2488.253906 
	C615.933777,2498.124512 619.133545,2501.296143 629.079773,2501.467041 
	C638.072571,2501.621826 647.070007,2501.502686 656.065430,2501.503174 
	C664.061340,2501.503906 672.057922,2501.569092 680.052979,2501.488281 
	C691.873108,2501.368652 694.466858,2498.666748 694.618408,2486.558350 
	C694.643433,2484.559570 694.621582,2482.560303 694.621643,2480.561279 
	C694.623108,2439.249023 694.481750,2397.936279 694.696960,2356.625244 
	C694.782043,2340.284912 696.159424,2324.063965 702.054688,2308.515381 
	C716.732971,2269.801758 751.596008,2247.108887 792.455200,2249.886230 
	C813.009766,2251.283447 826.548584,2262.302490 831.793518,2282.250732 
	C833.055969,2287.052246 833.521362,2292.063232 834.500427,2298.750244 
M2756.442627,3027.766602 
	C2732.844238,3036.806396 2708.572266,3039.970947 2683.912842,3033.737305 
	C2647.691406,3024.580566 2624.869873,3001.729248 2616.843506,2964.851074 
	C2616.172607,2961.767822 2616.251953,2958.521240 2615.894287,2954.311768 
	C2620.953369,2954.068115 2624.840088,2953.719482 2628.727051,2953.717285 
	C2690.714600,2953.683105 2752.702148,2953.693604 2814.689697,2953.693115 
	C2817.022461,2953.693115 2819.361328,2953.793701 2821.687256,2953.665771 
	C2830.197998,2953.196777 2833.282471,2950.144775 2834.316895,2941.461914 
	C2837.276855,2916.616455 2835.005127,2892.140869 2827.652588,2868.350586 
	C2813.838379,2823.653320 2785.620117,2792.456055 2740.103516,2778.725342 
	C2718.488770,2772.204834 2696.263428,2771.018799 2673.811035,2773.787842 
	C2623.832764,2779.950928 2584.289795,2802.991211 2558.097656,2846.544678 
	C2536.495361,2882.465820 2530.083496,2921.862549 2535.936279,2963.000488 
	C2544.129639,3020.584473 2574.016846,3063.150146 2627.002197,3088.154297 
	C2663.141602,3105.208740 2701.405029,3107.799561 2740.359619,3101.091553 
	C2769.644775,3096.048584 2796.529541,3084.713379 2820.849609,3067.556641 
	C2829.837646,3061.216064 2830.707031,3057.110596 2825.520020,3047.275146 
	C2820.082764,3036.965088 2814.530518,3026.714600 2808.925537,3016.494873 
	C2803.389893,3006.402344 2798.649902,3005.385498 2788.788574,3010.958252 
	C2778.661865,3016.680176 2768.204834,3021.817627 2756.442627,3027.766602 
M2492.768555,2387.000000 
	C2492.768555,2418.656006 2492.763184,2450.312012 2492.777344,2481.968018 
	C2492.778564,2484.964111 2492.629395,2487.996582 2493.022461,2490.949219 
	C2493.933350,2497.797119 2497.277588,2501.307861 2504.156494,2501.403809 
	C2523.146240,2501.668701 2542.144775,2501.688477 2561.133789,2501.393799 
	C2568.490967,2501.279785 2571.671143,2497.494629 2572.166992,2489.964600 
	C2572.320068,2487.641846 2572.206299,2485.301025 2572.206299,2482.968506 
	C2572.208252,2439.650146 2571.940918,2396.329102 2572.392090,2353.015381 
	C2572.509277,2341.787109 2573.709961,2330.293701 2576.409912,2319.417480 
	C2587.517334,2274.673096 2622.957031,2247.925781 2667.449951,2249.766357 
	C2690.904053,2250.736572 2705.369385,2262.580078 2709.904053,2285.768311 
	C2711.742188,2295.167480 2712.346191,2304.934326 2712.384277,2314.538330 
	C2712.606445,2370.518066 2712.491455,2426.499023 2712.499268,2482.479736 
	C2712.499512,2485.477539 2712.274414,2488.517578 2712.685547,2491.464111 
	C2713.547363,2497.641357 2716.984131,2501.264893 2723.308594,2501.363281 
	C2742.296875,2501.658691 2761.295410,2501.659424 2780.284424,2501.389648 
	C2787.186279,2501.291504 2790.496338,2497.700439 2791.379883,2490.899170 
	C2791.635498,2488.929688 2791.502930,2486.906738 2791.502930,2484.908203 
	C2791.506836,2422.263184 2791.586426,2359.617920 2791.454102,2296.973145 
	C2791.415283,2278.595947 2789.469727,2260.388184 2783.809326,2242.780762 
	C2773.918213,2212.013428 2753.947998,2191.095703 2722.523926,2182.516846 
	C2711.710938,2179.564941 2700.281982,2178.083252 2689.058350,2177.557129 
	C2639.574951,2175.236328 2600.128174,2193.560791 2572.721680,2235.718262 
	C2571.782227,2237.163574 2570.343262,2238.283691 2569.231445,2239.455811 
	C2569.231445,2226.073242 2569.289307,2213.102539 2569.214844,2200.132324 
	C2569.141602,2187.313721 2566.253418,2184.532227 2553.118164,2184.491943 
	C2539.456299,2184.450195 2525.794189,2184.480225 2512.132324,2184.482910 
	C2494.731201,2184.486572 2492.774414,2186.448975 2492.771973,2204.062744 
	C2492.763428,2264.375244 2492.769043,2324.687500 2492.768555,2387.000000 
M2261.219238,2843.000000 
	C2261.219238,2841.000977 2261.219238,2839.001953 2261.219238,2837.002930 
	C2261.218994,2822.676758 2261.363037,2808.348877 2261.170898,2794.025391 
	C2261.031982,2783.680664 2257.462891,2780.235840 2247.363525,2779.965576 
	C2244.034424,2779.876221 2240.700684,2779.943359 2237.369141,2779.944092 
	C2223.042969,2779.946533 2208.714111,2779.780029 2194.391846,2780.018799 
	C2185.909668,2780.160156 2182.377441,2783.916748 2181.974365,2792.239990 
	C2181.861816,2794.566650 2181.950928,2796.903564 2181.950684,2799.235596 
	C2181.944092,2842.213867 2182.077881,2885.192627 2181.866699,2928.169922 
	C2181.775635,2946.685303 2177.900635,2964.520264 2170.041016,2981.375000 
	C2154.315430,3015.098145 2124.528320,3033.596191 2088.803223,3031.885986 
	C2066.990234,3030.841797 2052.978271,3020.059814 2048.128662,2998.837646 
	C2045.703369,2988.224609 2044.557007,2977.104004 2044.490601,2966.202881 
	C2044.144409,2909.233887 2044.350220,2852.261719 2044.315063,2795.290527 
	C2044.307373,2782.838379 2041.482788,2780.021729 2029.046143,2779.963379 
	C2013.054565,2779.888184 1997.062256,2779.895508 1981.070679,2779.961426 
	C1968.372681,2780.013672 1965.686890,2782.640869 1965.682373,2795.054932 
	C1965.658813,2860.355225 1965.435425,2925.656982 1965.880981,2990.954102 
	C1965.968994,3003.830322 1967.528809,3016.955322 1970.417725,3029.503174 
	C1978.020508,3062.525391 1996.709717,3086.604492 2029.800293,3097.731934 
	C2046.433350,3103.325195 2063.654785,3105.082520 2081.057861,3104.077148 
	C2123.376221,3101.632812 2156.804688,3083.229980 2180.390625,3047.656250 
	C2181.790771,3045.544922 2183.152344,3043.408203 2184.531738,3041.282959 
	C2185.603271,3044.998291 2185.365234,3048.207520 2185.303711,3051.420166 
	C2185.098877,3062.074219 2184.678467,3072.734863 2184.873779,3083.383057 
	C2185.053467,3093.190674 2188.582031,3096.630127 2198.302002,3096.742188 
	C2214.957764,3096.934082 2231.619873,3096.949951 2248.275146,3096.728027 
	C2257.443115,3096.605469 2260.674561,3093.118408 2261.190186,3083.877930 
	C2261.320068,3081.552979 2261.219971,3079.214600 2261.219971,3076.882568 
	C2261.219971,2999.588379 2261.219238,2922.294189 2261.219238,2843.000000 
M944.996094,3096.625000 
	C953.662842,3096.617188 962.335754,3096.809814 970.994507,3096.542725 
	C978.907532,3096.298584 981.778625,3093.394287 982.504333,3085.700928 
	C982.691528,3083.716553 982.620239,3081.704834 982.620422,3079.705811 
	C982.625549,3018.374512 982.639160,2957.043457 982.615479,2895.712158 
	C982.609131,2879.357910 981.791077,2863.073975 977.778076,2847.112061 
	C969.400146,2813.788330 950.805054,2789.306152 917.012451,2778.917236 
	C906.603821,2775.717041 895.565918,2773.690186 884.697815,2773.006836 
	C834.299988,2769.839111 793.292725,2787.029785 764.822693,2830.184814 
	C763.693909,2831.895996 762.298218,2833.430908 760.320496,2835.946533 
	C760.320496,2820.490479 760.436523,2806.533691 760.276978,2792.579834 
	C760.181641,2784.249512 756.949707,2780.233887 749.341675,2780.097412 
	C731.348694,2779.774902 713.342712,2779.806396 695.348755,2780.104736 
	C688.722717,2780.214355 685.159180,2784.183105 684.409851,2790.822754 
	C684.149658,2793.128418 684.314514,2795.484131 684.314453,2797.816895 
	C684.312195,2891.480469 684.312988,2985.143799 684.315552,3078.807373 
	C684.315613,3081.140625 684.145935,3083.493896 684.388245,3085.802979 
	C685.110352,3092.685303 688.387207,3096.371582 695.210266,3096.466797 
	C714.537842,3096.735596 733.874390,3096.729248 753.201782,3096.447266 
	C759.583374,3096.354248 762.854736,3092.757812 763.569702,3086.490723 
	C763.870178,3083.856445 763.679199,3081.164307 763.683350,3078.498291 
	C763.753845,3033.501221 763.804138,2988.504395 763.896729,2943.507324 
	C763.922974,2930.741943 766.069092,2918.302246 770.250793,2906.251465 
	C784.687012,2864.649414 821.114563,2841.086914 863.818787,2845.663330 
	C882.353577,2847.649902 895.119385,2857.340820 899.728821,2875.405762 
	C902.495056,2886.247070 903.641418,2897.708252 903.933167,2908.931885 
	C904.547852,2932.581787 904.121643,2956.258789 904.121948,2979.924561 
	C904.122314,3013.923340 904.082642,3047.922363 904.143799,3081.921143 
	C904.164978,3093.693848 907.078613,3096.500000 919.001038,3096.610107 
	C927.000061,3096.683838 935.000366,3096.625000 944.996094,3096.625000 
M1061.413086,3079.651367 
	C1095.108643,3098.905762 1131.434814,3106.612305 1169.972900,3103.745361 
	C1195.300537,3101.861572 1219.002930,3094.844482 1239.921631,3079.729980 
	C1284.958008,3047.189209 1290.878174,2978.932373 1243.043091,2942.352783 
	C1235.142944,2936.311523 1226.650391,2930.841309 1217.836914,2926.248535 
	C1206.343384,2920.259277 1194.304932,2915.298096 1182.411255,2910.099609 
	C1171.126831,2905.167480 1159.507568,2900.948730 1148.458496,2895.550537 
	C1141.665405,2892.231201 1135.001099,2888.010254 1129.456665,2882.913086 
	C1119.495850,2873.755615 1119.573364,2860.291748 1129.650635,2851.235596 
	C1134.177124,2847.168213 1140.201050,2844.257080 1146.038696,2842.270752 
	C1156.305908,2838.776611 1167.104004,2839.512207 1177.723511,2840.869385 
	C1196.145142,2843.223633 1213.234619,2849.345947 1229.082886,2859.130371 
	C1236.580566,2863.759277 1242.076172,2862.625732 1245.904175,2855.474854 
	C1252.660034,2842.854248 1259.041626,2830.020508 1265.169922,2817.081787 
	C1268.305542,2810.461914 1266.894897,2805.927979 1260.738525,2801.511719 
	C1255.612427,2797.834717 1250.243286,2794.386963 1244.639404,2791.503418 
	C1208.978027,2773.155273 1171.176270,2768.939697 1131.947876,2775.144043 
	C1112.289795,2778.252930 1093.875854,2784.822510 1077.576538,2796.502441 
	C1031.894287,2829.236328 1029.208008,2894.110840 1072.258911,2930.211426 
	C1079.864502,2936.589355 1088.317749,2942.205078 1097.054077,2946.924072 
	C1108.745728,2953.239014 1121.038696,2958.461670 1133.178467,2963.919434 
	C1145.624512,2969.514648 1158.463745,2974.303467 1170.612427,2980.467041 
	C1177.612305,2984.018311 1184.373169,2988.825195 1189.840820,2994.433105 
	C1198.583374,3003.399414 1198.060791,3016.262451 1188.930786,3024.808350 
	C1184.701660,3028.766357 1179.180664,3031.901367 1173.691528,3033.844727 
	C1160.789307,3038.412354 1147.346069,3037.343018 1134.158447,3035.062744 
	C1114.139648,3031.601074 1096.141479,3023.205566 1079.604248,3011.465332 
	C1070.693481,3005.139404 1065.644165,3006.104492 1059.700806,3015.009277 
	C1052.673706,3025.538574 1045.741577,3036.133545 1038.936157,3046.806885 
	C1033.159058,3055.867432 1033.968384,3060.413818 1042.813965,3067.098389 
	C1048.384155,3071.308105 1054.367188,3074.971191 1061.413086,3079.651367 
M1457.474121,3024.160400 
	C1439.440674,3017.053711 1431.640869,3003.673340 1431.786133,2984.461670 
	C1432.108398,2941.822754 1431.874878,2899.179932 1431.907349,2856.538574 
	C1431.909302,2853.982422 1432.257202,2851.426758 1432.503540,2848.059814 
	C1436.374023,2848.059814 1439.632202,2848.060059 1442.890381,2848.059814 
	C1458.547729,2848.059326 1474.205688,2848.147949 1489.862061,2848.026855 
	C1500.241211,2847.946289 1503.737549,2844.509033 1503.850098,2834.371582 
	C1503.979614,2822.713379 1503.952026,2811.051758 1503.861816,2799.392822 
	C1503.777222,2788.442871 1500.509644,2784.956787 1489.617676,2784.819336 
	C1473.962769,2784.621582 1458.303467,2784.791504 1442.646240,2784.747314 
	C1439.403931,2784.738281 1436.162354,2784.478271 1431.883057,2784.287842 
	C1431.883057,2780.463623 1431.883179,2777.222656 1431.883179,2773.981689 
	C1431.882568,2752.327881 1431.920410,2730.674316 1431.866333,2709.020508 
	C1431.835938,2696.811279 1428.843384,2693.864014 1416.444946,2693.809814 
	C1401.121094,2693.742676 1385.796509,2693.752686 1370.472412,2693.805664 
	C1357.544556,2693.850342 1354.541504,2696.810791 1354.512817,2709.593506 
	C1354.464233,2731.247314 1354.498413,2752.900879 1354.497803,2774.554688 
	C1354.497803,2777.743652 1354.497803,2780.932861 1354.497803,2784.779297 
	C1343.744263,2784.779297 1334.450317,2784.569336 1325.170288,2784.836670 
	C1315.380127,2785.118652 1311.980103,2788.603760 1311.841309,2798.289307 
	C1311.674316,2809.946777 1311.723022,2821.609131 1311.819580,2833.267822 
	C1311.915039,2844.800781 1315.115601,2847.934814 1326.747559,2848.043945 
	C1334.988403,2848.121094 1343.230713,2848.058838 1352.499390,2848.058838 
	C1352.499390,2852.659424 1352.499390,2856.238281 1352.499390,2859.817139 
	C1352.499268,2904.790283 1352.442505,2949.763672 1352.554199,2994.736328 
	C1352.573242,3002.377441 1352.980225,3010.052490 1353.781006,3017.651123 
	C1357.345947,3051.480225 1374.746826,3075.219238 1406.290771,3088.193848 
	C1433.724731,3099.478027 1462.572632,3100.992432 1491.705444,3099.506104 
	C1500.592773,3099.052490 1503.774536,3095.071045 1503.844482,3085.796875 
	C1503.972412,3068.807861 1503.911743,3051.817139 1503.836060,3034.827637 
	C1503.827759,3032.981689 1503.203003,3031.138672 1502.822388,3029.066650 
	C1487.572510,3030.288574 1473.025635,3029.679443 1457.474121,3024.160400 
M1832.637817,2986.036377 
	C1832.632568,2963.037598 1832.561890,2940.038330 1832.640503,2917.039795 
	C1832.718506,2894.217773 1832.275757,2871.379395 1832.945435,2848.053223 
	C1837.678955,2848.053223 1840.990601,2848.053955 1844.302368,2848.053223 
	C1859.968262,2848.050537 1875.635132,2848.158203 1891.299561,2848.005127 
	C1901.307373,2847.907227 1904.425049,2844.786865 1904.579834,2834.797852 
	C1904.755493,2823.468018 1904.659302,2812.132812 1904.610840,2800.800293 
	C1904.555176,2787.787598 1901.763794,2784.889160 1888.844116,2784.804443 
	C1872.845459,2784.699707 1856.845581,2784.815918 1840.846802,2784.736572 
	C1838.335205,2784.724121 1835.826294,2784.184570 1832.622314,2783.807129 
	C1832.622314,2779.851074 1832.622314,2776.570068 1832.622314,2773.289062 
	C1832.622070,2751.956787 1832.665161,2730.624512 1832.605713,2709.292236 
	C1832.569824,2696.416504 1830.100708,2693.879639 1817.573853,2693.819336 
	C1802.241699,2693.745361 1786.908691,2693.760254 1771.576294,2693.812012 
	C1758.355225,2693.856934 1755.727295,2696.436035 1755.693115,2709.535889 
	C1755.635620,2731.534912 1755.696777,2753.533691 1755.649780,2775.532715 
	C1755.643677,2778.393311 1755.290527,2781.253418 1755.053467,2784.779053 
	C1745.871460,2784.779053 1737.571167,2784.723389 1729.272095,2784.791748 
	C1715.783936,2784.902832 1712.603027,2788.006348 1712.521973,2801.152344 
	C1712.458130,2811.484863 1712.443726,2821.818359 1712.519043,2832.150635 
	C1712.611450,2844.812256 1715.829956,2847.971680 1728.572388,2848.043213 
	C1736.759888,2848.089111 1744.947876,2848.051514 1753.804077,2848.051514 
	C1753.804077,2853.111816 1753.804077,2856.732666 1753.804077,2860.353760 
	C1753.803589,2906.684814 1753.795044,2953.015625 1753.815308,2999.346680 
	C1753.817261,3004.010986 1753.745605,3008.695801 1754.130005,3013.336182 
	C1756.979004,3047.730225 1772.878296,3073.368164 1805.140869,3087.322021 
	C1833.357300,3099.525879 1863.248779,3101.108643 1893.424805,3099.419922 
	C1901.279297,3098.980469 1904.474121,3095.038330 1904.553101,3086.894775 
	C1904.727417,3068.897705 1904.608398,3050.897461 1904.526245,3032.898926 
	C1904.520630,3031.687012 1903.825195,3030.478516 1903.732544,3030.179199 
	C1892.735107,3029.418701 1882.398560,3029.287842 1872.237549,3027.885498 
	C1847.569336,3024.481689 1835.900391,3012.355957 1832.637817,2986.036377 
M2362.139404,3050.620361 
	C2372.551758,3070.154297 2389.007080,3082.531494 2409.419434,3089.927979 
	C2435.560059,3099.399414 2462.742432,3101.014160 2490.194824,3099.524170 
	C2499.191650,3099.035889 2502.484131,3095.218994 2502.568359,3086.041260 
	C2502.730469,3068.385010 2502.614502,3050.726074 2502.540771,3033.068359 
	C2502.535645,3031.843994 2501.925049,3030.622314 2501.806152,3030.179932 
	C2490.888428,3029.436768 2480.528809,3029.500977 2470.437012,3027.889648 
	C2447.022461,3024.151611 2429.985352,3012.417969 2430.462646,2982.149658 
	C2431.108887,2941.179688 2430.611816,2900.192383 2430.641602,2859.212402 
	C2430.644287,2855.675293 2430.916016,2852.137939 2431.085449,2848.053223 
	C2435.504639,2848.053223 2438.813965,2848.053711 2442.123535,2848.053223 
	C2457.782471,2848.050781 2473.442383,2848.158691 2489.099854,2848.004639 
	C2499.051025,2847.906738 2502.377930,2844.678467 2502.563965,2834.885498 
	C2502.779053,2823.561768 2502.668457,2812.230713 2502.607666,2800.903076 
	C2502.537598,2787.898193 2499.652832,2784.887207 2486.881836,2784.802979 
	C2470.890381,2784.697754 2454.897461,2784.813477 2438.905762,2784.736572 
	C2436.387939,2784.724365 2433.873047,2784.201904 2430.623779,2783.831787 
	C2430.623779,2780.570068 2430.623779,2777.960205 2430.623779,2775.350342 
	C2430.623291,2753.694336 2430.656494,2732.038086 2430.610107,2710.382080 
	C2430.579346,2695.923584 2428.399414,2693.830322 2413.602051,2693.805908 
	C2398.942627,2693.781494 2384.282959,2693.766846 2369.623535,2693.810303 
	C2356.164795,2693.850098 2353.710205,2696.234131 2353.686279,2709.357910 
	C2353.645996,2731.347168 2353.692627,2753.336182 2353.651123,2775.325439 
	C2353.645752,2778.224854 2353.335693,2781.123535 2353.122070,2784.789795 
	C2343.074219,2784.789795 2333.774414,2784.597656 2324.486328,2784.841309 
	C2314.152588,2785.112061 2310.693359,2788.626221 2310.546875,2798.838379 
	C2310.384521,2810.164062 2310.435791,2821.493896 2310.524902,2832.821045 
	C2310.619385,2844.827637 2313.867432,2847.960693 2326.112793,2848.041016 
	C2334.345215,2848.094971 2342.578125,2848.051270 2351.803711,2848.051270 
	C2351.803711,2852.720703 2351.803467,2856.299561 2351.803467,2859.878418 
	C2351.802734,2907.854980 2351.855957,2955.831299 2351.771729,3003.807861 
	C2351.743652,3019.698486 2354.405762,3034.937988 2362.139404,3050.620361 
M1189.042480,2060.311768 
	C1182.713501,2060.315186 1176.379150,2060.155029 1170.056885,2060.361328 
	C1161.249023,2060.648438 1158.044800,2063.895752 1157.690186,2072.421631 
	C1157.634888,2073.751709 1157.677490,2075.086182 1157.677490,2076.418457 
	C1157.678101,2186.343262 1157.619141,2296.267822 1157.784912,2406.192383 
	C1157.799438,2415.798584 1158.649170,2425.508301 1160.210205,2434.989014 
	C1166.533569,2473.390625 1189.252319,2496.356934 1227.602295,2502.208984 
	C1240.335083,2504.152100 1253.459595,2503.952393 1266.404663,2503.946777 
	C1276.737305,2503.942139 1279.944458,2500.206299 1280.014404,2489.843018 
	C1280.126465,2473.188477 1280.067871,2456.532715 1280.000366,2439.877686 
	C1279.992798,2437.996338 1279.465210,2436.117188 1279.131470,2433.926514 
	C1274.012085,2433.926514 1269.370117,2434.067383 1264.739258,2433.900391 
	C1250.354004,2433.382080 1241.484131,2426.619141 1238.402222,2412.635010 
	C1236.771606,2405.235840 1236.154785,2397.477539 1236.140381,2389.879150 
	C1235.986206,2308.601807 1236.044678,2227.323975 1236.044067,2146.046387 
	C1236.043945,2122.395996 1236.106201,2098.745117 1236.013672,2075.094971 
	C1235.968872,2063.666016 1232.623291,2060.443359 1221.006470,2060.333740 
	C1211.014160,2060.239502 1201.020264,2060.312988 1189.042480,2060.311768 
M520.512146,3085.662598 
	C523.251282,3094.701172 524.717896,3096.574951 532.162292,3096.677002 
	C551.475159,3096.941895 570.797180,3096.943359 590.109375,3096.645996 
	C597.051147,3096.539307 600.285706,3092.969238 601.113586,3086.120361 
	C601.391724,3083.820068 601.237671,3081.464111 601.237732,3079.133789 
	C601.241333,2944.244141 601.241028,2809.354492 601.234924,2674.464844 
	C601.234802,2671.801514 601.407959,2669.106934 601.074463,2666.480957 
	C600.217651,2659.734375 596.757935,2656.122070 589.953674,2656.035889 
	C570.639282,2655.791016 551.317810,2655.787109 532.003357,2656.029541 
	C524.807129,2656.119873 521.242859,2659.986816 520.564697,2667.240967 
	C520.317749,2669.883545 520.488647,2672.566162 520.488586,2675.230469 
	C520.487488,2811.452393 520.488525,2947.674072 520.512146,3085.662598 
M2415.886963,2323.000000 
	C2415.886963,2281.673584 2415.918945,2240.346924 2415.864746,2199.020508 
	C2415.851074,2188.572510 2412.776367,2184.687500 2403.743164,2184.565430 
	C2385.416260,2184.318359 2367.081543,2184.324463 2348.754395,2184.567627 
	C2340.303467,2184.679443 2337.012695,2188.397461 2336.519775,2197.045166 
	C2336.406006,2199.038330 2336.494385,2201.043457 2336.494385,2203.042969 
	C2336.493896,2296.361084 2336.493408,2389.678955 2336.494629,2482.997070 
	C2336.494629,2485.329834 2336.351562,2487.676270 2336.548584,2489.992920 
	C2337.183594,2497.454102 2340.488525,2501.278564 2347.784912,2501.389893 
	C2366.777344,2501.680176 2385.779541,2501.671875 2404.772217,2501.396973 
	C2412.031250,2501.292236 2415.357422,2497.399414 2415.851807,2489.971436 
	C2416.006348,2487.648438 2415.886475,2485.306885 2415.886719,2482.973877 
	C2415.887207,2430.315918 2415.886963,2377.657959 2415.886963,2323.000000 
M995.942627,2275.000000 
	C995.943359,2345.319580 995.926270,2415.638916 995.961609,2485.958496 
	C995.967834,2498.448730 998.924377,2501.448730 1011.106323,2501.500000 
	C1027.436157,2501.568604 1043.766724,2501.570312 1060.096558,2501.499756 
	C1072.132812,2501.447510 1075.472046,2498.178711 1075.478027,2486.009521 
	C1075.524658,2390.695068 1075.524536,2295.380371 1075.478271,2200.065918 
	C1075.472412,2187.854004 1072.141968,2184.557861 1060.150635,2184.501953 
	C1043.820923,2184.425537 1027.490234,2184.431641 1011.160461,2184.502441 
	C998.954651,2184.555420 995.994751,2187.561768 995.963257,2200.014404 
	C995.901733,2224.343018 995.943542,2248.671387 995.942627,2275.000000 
M1650.303101,2791.894531 
	C1648.305298,2781.942627 1646.356689,2780.087158 1636.545044,2779.995361 
	C1621.214966,2779.851807 1605.882568,2779.947998 1590.551147,2779.955078 
	C1572.907959,2779.963135 1571.388550,2781.506836 1571.387573,2799.524414 
	C1571.382568,2892.179688 1571.385010,2984.834717 1571.385864,3077.489990 
	C1571.385986,3079.822998 1571.292480,3082.162109 1571.426025,3084.488037 
	C1571.938477,3093.417725 1574.792603,3096.455078 1583.776733,3096.550049 
	C1601.772461,3096.740479 1619.773071,3096.742432 1637.768799,3096.551270 
	C1647.242798,3096.450684 1649.983032,3093.378906 1650.302734,3083.684814 
	C1650.368652,3081.687012 1650.317871,3079.685547 1650.317871,3077.685791 
	C1650.317383,2983.030762 1650.316406,2888.375977 1650.303101,2791.894531 
M2415.533936,2077.658203 
	C2415.258789,2062.756348 2412.800049,2060.300537 2398.020508,2060.281494 
	C2382.722412,2060.261719 2367.424072,2060.231689 2352.126221,2060.291504 
	C2339.803223,2060.339600 2336.556885,2063.460449 2336.483154,2075.419189 
	C2336.398682,2089.053711 2336.386230,2102.689941 2336.493652,2116.324219 
	C2336.583740,2127.752930 2339.911865,2131.125977 2351.463623,2131.228516 
	C2367.758057,2131.373291 2384.055908,2131.380371 2400.350342,2131.228271 
	C2412.270752,2131.116699 2415.426270,2127.736816 2415.514893,2115.429932 
	C2415.600830,2103.458252 2415.532715,2091.485352 2415.533936,2077.658203 
M1019.297241,2131.248047 
	C1033.293579,2131.244141 1047.294312,2131.449463 1061.284912,2131.165283 
	C1071.141968,2130.965088 1074.238037,2127.563721 1074.311401,2117.644043 
	C1074.419800,2102.981934 1074.422607,2088.317871 1074.307983,2073.656006 
	C1074.230225,2063.692627 1071.108643,2060.439453 1061.189087,2060.345459 
	C1043.861816,2060.181152 1026.530518,2060.168457 1009.203491,2060.352295 
	C999.585449,2060.454346 996.115540,2064.073486 995.981262,2073.822266 
	C995.816101,2085.816895 996.228455,2097.824463 995.868958,2109.810547 
	C995.331482,2127.735840 996.738831,2132.021973 1019.297241,2131.248047 
M1632.493164,2655.943359 
	C1616.542236,2655.946045 1600.590332,2655.839844 1584.640747,2655.991455 
	C1574.787964,2656.084961 1571.567017,2659.275635 1571.431152,2669.263916 
	C1571.232422,2683.882812 1571.223267,2698.508789 1571.437256,2713.127441 
	C1571.584595,2723.183350 1574.656006,2726.102783 1584.749023,2726.171875 
	C1601.696045,2726.288330 1618.644653,2726.264648 1635.592163,2726.180664 
	C1646.555298,2726.126465 1649.771118,2722.916260 1649.851685,2711.949951 
	C1649.951782,2698.325928 1649.932007,2684.700439 1649.860840,2671.075928 
	C1649.798096,2659.041016 1647.020264,2656.394775 1632.493164,2655.943359 
z"/>
<path fill="#018EB5" opacity="1.000000" stroke="none" 
	d="
M1575.403076,688.562500 
	C1627.270996,730.703613 1654.292725,785.392639 1662.383789,850.271606 
	C1665.552124,875.677368 1664.049438,900.756653 1658.175171,925.655945 
	C1648.248535,967.731689 1662.249268,1000.836426 1696.301514,1026.288696 
	C1701.369507,1030.076782 1706.718628,1033.519409 1711.564941,1037.568115 
	C1723.971558,1047.933228 1726.162720,1061.737183 1716.504883,1074.681641 
	C1711.403687,1081.519043 1704.726685,1087.320435 1698.180786,1092.909790 
	C1686.113037,1103.214355 1685.636719,1103.225464 1693.755127,1116.484009 
	C1698.429932,1124.118896 1703.483154,1131.788208 1709.680176,1138.164551 
	C1719.875244,1148.654663 1714.916260,1163.342407 1706.206543,1169.559692 
	C1699.563721,1174.301392 1692.192627,1176.967529 1684.237671,1178.619385 
	C1680.623169,1179.369873 1674.821411,1178.191528 1674.092163,1183.044556 
	C1673.210815,1188.909546 1679.578979,1188.494995 1683.173950,1190.332153 
	C1684.951416,1191.240356 1686.804321,1192.025391 1688.498291,1193.068726 
	C1702.666138,1201.796021 1703.636963,1217.512451 1689.511353,1226.121704 
	C1673.795898,1235.699829 1668.406494,1249.198975 1669.873901,1266.595703 
	C1670.153564,1269.911377 1669.981689,1273.264526 1670.241821,1276.582764 
	C1672.303223,1302.880859 1659.162720,1320.510376 1637.231079,1332.182861 
	C1628.560059,1336.797729 1618.741577,1340.233032 1609.059448,1341.763916 
	C1590.351562,1344.721802 1571.408936,1346.572754 1552.493286,1347.766968 
	C1502.591064,1350.917114 1466.251953,1390.129517 1468.336670,1439.973877 
	C1469.367676,1464.628296 1479.186890,1485.695312 1496.898926,1503.031250 
	C1525.360474,1530.888184 1550.328247,1561.600220 1571.553833,1595.302734 
	C1603.889771,1646.646362 1625.753662,1702.008667 1635.084351,1762.125732 
	C1635.228760,1763.056641 1635.102295,1764.029541 1635.102295,1766.390625 
	C1555.702759,1753.709351 1480.517456,1729.216675 1409.181152,1693.085693 
	C1283.385132,1629.371948 1181.891968,1538.273926 1103.633667,1420.455200 
	C1105.655396,1417.530273 1107.501221,1414.845703 1109.361328,1412.171021 
	C1129.272949,1383.539185 1135.985840,1351.624756 1132.941406,1317.291016 
	C1129.980591,1283.901367 1117.934326,1254.281616 1097.777710,1227.397827 
	C1072.996338,1194.345947 1049.337402,1160.454468 1028.810791,1124.512817 
	C1009.552673,1090.792236 993.694702,1055.616455 986.131897,1017.330322 
	C968.840881,929.795776 984.647583,848.180298 1033.534790,773.789734 
	C1088.809448,689.679321 1167.462524,638.841797 1265.409912,618.204773 
	C1349.182251,600.554260 1430.363281,609.684448 1508.067261,646.316284 
	C1531.966553,657.583069 1554.143188,671.696899 1575.403076,688.562500 
z"/>
<path fill="#028EB5" opacity="1.000000" stroke="none" 
	d="
M1125.226440,527.200073 
	C1136.732544,512.133728 1147.704224,496.621490 1159.838623,482.079437 
	C1208.849365,423.344116 1265.363647,372.848358 1329.357178,330.956268 
	C1363.528564,308.586731 1401.065186,292.914825 1439.452759,279.353180 
	C1496.238525,259.291718 1554.697388,247.004761 1614.690308,241.597504 
	C1653.610352,238.089600 1692.509277,237.309357 1731.469971,240.151764 
	C1808.896851,245.800507 1883.514160,262.658539 1953.646240,296.811584 
	C2019.090454,328.681671 2073.316406,373.547180 2113.688477,434.734802 
	C2143.322998,479.648712 2170.463623,525.701477 2186.457764,577.513184 
	C2197.691650,613.905579 2201.961914,651.038574 2198.596436,689.016174 
	C2198.332275,691.999939 2198.541504,695.034241 2198.162354,697.997986 
	C2194.509277,726.555542 2204.482666,750.913147 2220.837402,773.524292 
	C2245.111816,807.085022 2275.274658,834.634583 2307.847900,859.786560 
	C2316.283447,866.300354 2325.209473,872.278259 2333.025879,879.464417 
	C2339.827393,885.717407 2346.253906,892.754700 2351.308350,900.455017 
	C2362.689941,917.795349 2360.881348,936.336121 2347.227539,951.996216 
	C2334.883545,966.154297 2318.805176,974.826904 2301.999023,982.447388 
	C2297.510254,984.482788 2293.310303,987.195496 2289.101074,989.796814 
	C2283.760986,993.096863 2281.438965,998.385132 2281.922607,1004.280151 
	C2282.541016,1011.819031 2283.195068,1019.618408 2285.651367,1026.672607 
	C2288.353760,1034.432861 2292.872559,1041.618530 2297.046143,1048.794922 
	C2303.170166,1059.324951 2307.565430,1070.353760 2307.978760,1082.641479 
	C2308.463623,1097.059692 2302.903809,1108.541138 2290.747070,1116.606323 
	C2289.359863,1117.526611 2287.899658,1118.340088 2286.536865,1119.293701 
	C2277.372314,1125.707642 2277.071777,1131.526123 2284.867188,1139.524292 
	C2289.476562,1144.253418 2294.435303,1149.066162 2297.527588,1154.768188 
	C2306.072021,1170.523315 2303.428467,1189.584351 2290.117188,1202.670166 
	C2280.285889,1212.334595 2276.695068,1223.755737 2275.789062,1236.683594 
	C2274.407715,1256.389038 2275.741699,1275.960327 2279.117188,1295.401123 
	C2281.475830,1308.985229 2281.977295,1322.512817 2278.574951,1336.030762 
	C2272.644287,1359.594360 2258.445068,1376.086426 2236.386230,1386.074463 
	C2208.002686,1398.925903 2178.180420,1405.184082 2147.126709,1404.482178 
	C2120.167236,1403.872803 2093.238037,1402.000244 2066.284668,1400.977295 
	C2057.334229,1400.637451 2048.346680,1401.105957 2039.381226,1401.377319 
	C2028.496216,1401.706665 2019.724854,1406.571411 2011.865112,1413.894531 
	C1994.178345,1430.373413 1984.115845,1451.048706 1977.973022,1473.972290 
	C1969.952026,1503.903809 1969.106079,1534.498657 1969.744141,1565.208374 
	C1970.562134,1604.577148 1975.493652,1643.565796 1980.946167,1682.492065 
	C1983.757080,1702.558472 1986.927246,1722.574585 1989.908325,1742.435913 
	C1968.218262,1754.894775 1826.967407,1774.192261 1790.758667,1775.594238 
	C1775.943848,1753.802490 1762.714966,1730.746338 1750.992310,1706.835815 
	C1730.214478,1664.455322 1714.716553,1620.296997 1707.127319,1573.571899 
	C1699.398804,1525.988525 1699.296875,1478.731812 1713.781616,1432.186768 
	C1718.965332,1415.529541 1726.453979,1400.065796 1736.888550,1385.959839 
	C1747.842773,1371.151733 1762.082764,1363.723877 1780.555664,1364.495361 
	C1798.861328,1365.260132 1817.166138,1366.084961 1835.478760,1366.634033 
	C1865.037109,1367.520020 1893.701050,1363.973022 1921.600220,1352.888672 
	C1947.721436,1342.511230 1960.121460,1323.469116 1957.177612,1292.080566 
	C1955.561523,1274.848633 1953.119019,1257.682129 1955.726807,1240.289673 
	C1957.341675,1229.520264 1960.373657,1219.566772 1967.691772,1211.190308 
	C1969.864380,1208.703369 1971.692993,1205.843262 1973.293945,1202.941528 
	C1981.897217,1187.347534 1978.833862,1171.606689 1965.096558,1160.121094 
	C1954.597778,1151.343140 1954.608521,1144.403809 1965.150757,1135.824219 
	C1966.700684,1134.562744 1968.366577,1133.439087 1969.873657,1132.130493 
	C1982.500610,1121.165894 1985.382202,1106.403198 1977.670654,1091.579956 
	C1974.906372,1086.266235 1971.211914,1081.358398 1969.044312,1075.832886 
	C1966.647705,1069.723389 1964.929810,1063.204590 1963.967163,1056.708374 
	C1962.487671,1046.724487 1967.836304,1040.440063 1976.607910,1036.396606 
	C1984.156128,1032.917236 1991.984253,1029.761963 1998.882568,1025.234985 
	C2005.759766,1020.721802 2012.384644,1015.337402 2017.785645,1009.166870 
	C2027.692749,997.848022 2028.372681,985.236877 2021.038452,972.098389 
	C2015.063599,961.395142 2006.004639,953.559570 1996.543701,946.073303 
	C1985.312744,937.186462 1973.986938,928.390137 1963.176636,919.008118 
	C1947.792969,905.657043 1933.719238,890.968079 1921.694702,874.470642 
	C1916.995972,868.023926 1912.767578,861.213318 1908.626831,854.385437 
	C1901.659424,842.896423 1898.909790,830.387024 1900.579956,817.015808 
	C1906.596802,768.845825 1898.308716,722.811401 1879.788086,678.346436 
	C1862.559082,636.982422 1841.532593,597.624939 1814.504517,561.841797 
	C1774.672852,509.107666 1722.003296,473.225800 1661.347168,448.470978 
	C1619.802734,431.515991 1576.532837,421.255066 1532.039795,415.655731 
	C1496.530273,411.186981 1460.905396,410.200806 1425.293945,412.349030 
	C1351.068237,416.826630 1279.775269,433.051331 1213.404053,467.863647 
	C1184.594482,482.974518 1159.304077,503.093536 1133.897949,523.074158 
	C1131.805420,524.719849 1129.718872,526.373291 1126.696045,527.888428 
	C1125.762451,527.753662 1125.226440,527.200073 1125.226440,527.200073 
z"/>
<path fill="#038FB6" opacity="1.000000" stroke="none" 
	d="
M2202.449219,2501.507568 
	C2199.177734,2501.503662 2196.834473,2501.644043 2194.514404,2501.469971 
	C2186.490479,2500.868408 2183.354492,2497.653076 2182.817383,2489.501953 
	C2182.664307,2487.178955 2182.782959,2484.838135 2182.780762,2482.505371 
	C2182.687256,2391.866943 2182.594482,2301.228760 2182.502197,2210.590332 
	C2182.498535,2207.046875 2182.501953,2203.503418 2180.757324,2199.528809 
	C2179.615234,2202.103516 2178.427246,2204.658936 2177.338379,2207.255859 
	C2148.891113,2275.102783 2120.454834,2342.954346 2092.013916,2410.803955 
	C2090.984375,2413.259521 2089.886475,2415.687256 2088.888916,2418.155762 
	C2086.769287,2423.400391 2082.882812,2425.878906 2077.257568,2425.871094 
	C2059.262695,2425.846191 2041.266724,2425.757568 2023.273193,2425.917480 
	C2016.032471,2425.981934 2012.623169,2421.860352 2010.125977,2415.816895 
	C1999.574463,2390.281494 1988.869629,2364.809082 1978.214844,2339.316406 
	C1959.601440,2294.781494 1940.985229,2250.247314 1922.362183,2205.716309 
	C1921.477295,2203.600342 1920.513794,2201.517578 1919.064087,2198.235596 
	C1916.732056,2202.322998 1917.544678,2205.855713 1917.542847,2209.109375 
	C1917.489014,2300.083984 1917.498291,2391.058594 1917.496094,2482.033203 
	C1917.495728,2499.817383 1915.827393,2501.503174 1898.225586,2501.507080 
	C1884.895996,2501.510254 1871.566284,2501.528076 1858.236694,2501.501221 
	C1844.280151,2501.473389 1841.813843,2499.078613 1841.808716,2485.390381 
	C1841.789307,2433.071533 1841.816162,2380.752930 1841.797363,2328.434082 
	C1841.767700,2245.791016 1841.714966,2163.147949 1841.672241,2080.504883 
	C1841.671265,2078.505371 1841.641846,2076.505615 1841.675659,2074.506592 
	C1841.860840,2063.552490 1844.943604,2060.381836 1856.084351,2060.337402 
	C1879.744019,2060.243164 1903.404419,2060.282471 1927.064453,2060.318359 
	C1938.865601,2060.336182 1940.115967,2061.210938 1944.610718,2072.551025 
	C1977.849121,2156.409424 2011.064575,2240.277100 2044.305908,2324.134766 
	C2045.970093,2328.333008 2047.807617,2332.462891 2050.399902,2338.604004 
	C2052.807373,2332.831055 2054.360107,2329.280273 2055.780029,2325.677002 
	C2088.846680,2241.750732 2121.895996,2157.818115 2154.957520,2073.889893 
	C2160.121582,2060.781494 2160.791992,2060.322021 2174.618652,2060.312744 
	C2197.612305,2060.297363 2220.605957,2060.255371 2243.599365,2060.331787 
	C2255.401367,2060.371094 2258.309326,2063.300293 2258.311279,2075.100098 
	C2258.334473,2212.395264 2258.336426,2349.690186 2258.309326,2486.985352 
	C2258.306885,2498.729004 2255.477295,2501.425293 2243.376709,2501.489502 
	C2230.047363,2501.560059 2216.717529,2501.506836 2202.449219,2501.507568 
z"/>
<path fill="#038FB6" opacity="1.000000" stroke="none" 
	d="
M2875.474121,2460.488037 
	C2854.972656,2434.240479 2844.667725,2404.626465 2841.155518,2372.640137 
	C2837.071289,2335.443604 2839.192871,2298.718506 2854.099854,2263.770264 
	C2874.120361,2216.834961 2908.579346,2187.204590 2959.579102,2178.990723 
	C2982.807861,2175.249756 3006.099121,2176.491211 3028.664307,2184.116943 
	C3046.045898,2189.990967 3060.859863,2199.788330 3073.438477,2215.422363 
	C3073.917480,2211.922852 3074.443359,2209.872314 3074.443115,2207.821533 
	C3074.435059,2164.183594 3074.367920,2120.545898 3074.312744,2076.907959 
	C3074.311523,2075.908447 3074.282715,2074.907959 3074.320068,2073.909912 
	C3074.684814,2064.203857 3078.075195,2060.472900 3087.599121,2060.367188 
	C3105.252441,2060.170898 3122.910400,2060.182617 3140.564209,2060.364746 
	C3150.123047,2060.463135 3153.512939,2064.138428 3153.856689,2073.853271 
	C3153.939209,2076.182129 3153.878418,2078.516602 3153.878418,2080.848389 
	C3153.878662,2214.429688 3153.880127,2348.010742 3153.876953,2481.592041 
	C3153.876465,2499.845703 3152.214111,2501.501709 3133.982666,2501.506836 
	C3120.324707,2501.510498 3106.666016,2501.597168 3093.009033,2501.479248 
	C3082.053467,2501.384521 3078.940674,2498.182861 3078.805420,2487.014160 
	C3078.688965,2477.378418 3078.781494,2467.739990 3077.673340,2456.220215 
	C3076.920410,2457.872559 3076.414795,2459.701416 3075.378418,2461.151123 
	C3053.282227,2492.062256 3022.796143,2507.255615 2985.214111,2508.639648 
	C2949.520020,2509.954590 2917.372803,2500.369629 2890.381836,2476.201416 
	C2885.195068,2471.557129 2880.726074,2466.111328 2875.474121,2460.488037 
M2984.525146,2440.979980 
	C3023.308350,2446.446777 3054.453857,2428.461914 3068.571045,2392.116699 
	C3077.733643,2368.528564 3078.583496,2344.066650 3074.911865,2319.339600 
	C3072.938721,2306.053711 3068.529785,2293.488037 3061.613281,2281.934814 
	C3052.812256,2267.233398 3041.015625,2255.793457 3024.625732,2249.862061 
	C2990.947021,2237.674805 2948.710449,2248.373779 2929.975586,2290.615723 
	C2914.184570,2326.219727 2914.904785,2362.694580 2930.700195,2398.170166 
	C2940.704590,2420.639160 2958.017090,2435.604736 2984.525146,2440.979980 
z"/>
<path fill="#038FB6" opacity="1.000000" stroke="none" 
	d="
M1332.331787,2439.634521 
	C1312.763794,2402.427734 1307.765137,2363.219238 1310.850342,2322.671631 
	C1312.552856,2300.297852 1317.591309,2278.596680 1327.254517,2258.194092 
	C1347.918579,2214.564453 1381.352173,2187.031006 1429.438843,2179.143311 
	C1453.000977,2175.278564 1476.606812,2176.418945 1499.503052,2184.182129 
	C1517.249634,2190.199463 1532.332397,2200.184814 1544.796875,2216.620117 
	C1545.199829,2212.955078 1545.622681,2210.911133 1545.620239,2208.867432 
	C1545.567017,2164.229004 1545.419189,2119.590332 1545.407349,2074.951904 
	C1545.404175,2063.242432 1548.421753,2060.391357 1560.361816,2060.332031 
	C1576.352295,2060.252686 1592.343384,2060.278076 1608.334106,2060.322266 
	C1621.515503,2060.358887 1624.183105,2062.984375 1624.187256,2075.992188 
	C1624.207275,2138.289795 1624.195923,2200.587402 1624.195679,2262.885010 
	C1624.195557,2336.176270 1624.195557,2409.467773 1624.195068,2482.759033 
	C1624.195068,2485.091064 1624.277344,2487.427002 1624.170532,2489.754150 
	C1623.824829,2497.281982 1620.647339,2501.247803 1613.443726,2501.375977 
	C1595.792847,2501.689453 1578.128662,2501.694824 1560.478149,2501.370361 
	C1553.287109,2501.238281 1549.995361,2497.268799 1549.860474,2489.676758 
	C1549.673584,2479.145752 1549.813477,2468.609131 1549.813477,2457.229248 
	C1543.896362,2464.070557 1538.904663,2470.573730 1533.170410,2476.338379 
	C1513.544312,2496.068604 1489.501099,2506.305420 1461.880127,2508.251221 
	C1427.831299,2510.649902 1396.349609,2503.558594 1368.722656,2482.565186 
	C1353.627075,2471.094238 1341.949829,2456.714111 1332.331787,2439.634521 
M1503.290039,2253.418213 
	C1462.912964,2234.019043 1419.204590,2249.833496 1400.341064,2290.822510 
	C1390.003296,2313.285645 1388.209473,2337.027344 1390.898926,2361.239258 
	C1392.567139,2376.256836 1396.687134,2390.619141 1404.179077,2403.880371 
	C1421.010254,2433.673096 1452.248657,2447.751953 1485.660278,2440.147217 
	C1515.663574,2433.317871 1533.068115,2413.131348 1541.835205,2384.820801 
	C1548.645630,2362.829590 1549.951904,2340.211182 1545.439941,2317.611084 
	C1540.175781,2291.242676 1528.911011,2268.392090 1503.290039,2253.418213 
z"/>
<path fill="#038FB6" opacity="1.000000" stroke="none" 
	d="
M349.205566,2506.937500 
	C249.891708,2494.614014 175.589905,2424.458252 157.746231,2326.255859 
	C148.515442,2275.454346 152.567291,2225.787842 175.388718,2178.985840 
	C209.765915,2108.485107 266.768738,2067.547119 344.003174,2055.947998 
	C403.243774,2047.051392 459.422821,2057.392578 511.051666,2088.718994 
	C519.276062,2093.709229 526.992920,2099.642090 534.477234,2105.715088 
	C541.034058,2111.035400 541.530212,2115.112793 537.083069,2122.215332 
	C528.952271,2135.200928 520.595703,2148.047607 512.182800,2160.853516 
	C506.485626,2169.525391 501.695770,2170.484863 493.188873,2164.445801 
	C471.225983,2148.854248 447.485779,2137.173340 421.146179,2131.086182 
	C387.043091,2123.205322 353.441559,2124.861572 321.340210,2139.031982 
	C272.279327,2160.688965 246.435562,2200.253906 238.192764,2252.062256 
	C232.714279,2286.496582 237.604645,2319.820557 252.233154,2351.509766 
	C278.404114,2408.202881 334.427948,2440.163330 396.526337,2434.715576 
	C432.878601,2431.526367 464.612396,2417.450684 493.403198,2395.775635 
	C496.595123,2393.372803 499.571411,2390.684570 502.747192,2388.259033 
	C509.753143,2382.908203 514.730835,2383.147461 519.873474,2389.930908 
	C529.734741,2402.938232 539.353149,2416.137207 548.771484,2429.469482 
	C553.245422,2435.802979 552.970825,2439.940186 546.763367,2445.233398 
	C536.646423,2453.860840 526.392578,2462.520996 515.272095,2469.744141 
	C471.770081,2498.001221 423.789215,2510.458496 372.024780,2508.506836 
	C364.705750,2508.231201 357.400177,2507.599121 349.205566,2506.937500 
z"/>
<path fill="#038FB6" opacity="1.000000" stroke="none" 
	d="
M834.426880,2297.864258 
	C833.521362,2292.063232 833.055969,2287.052246 831.793518,2282.250732 
	C826.548584,2262.302490 813.009766,2251.283447 792.455200,2249.886230 
	C751.596008,2247.108887 716.732971,2269.801758 702.054688,2308.515381 
	C696.159424,2324.063965 694.782043,2340.284912 694.696960,2356.625244 
	C694.481750,2397.936279 694.623108,2439.249023 694.621643,2480.561279 
	C694.621582,2482.560303 694.643433,2484.559570 694.618408,2486.558350 
	C694.466858,2498.666748 691.873108,2501.368652 680.052979,2501.488281 
	C672.057922,2501.569092 664.061340,2501.503906 656.065430,2501.503174 
	C647.070007,2501.502686 638.072571,2501.621826 629.079773,2501.467041 
	C619.133545,2501.296143 615.933777,2498.124512 615.837402,2488.253906 
	C615.707275,2474.928711 615.804382,2461.601074 615.804321,2448.274658 
	C615.803833,2325.337646 615.803467,2202.400391 615.802979,2079.463379 
	C615.802979,2077.797607 615.780334,2076.131348 615.804443,2074.465820 
	C615.962891,2063.525635 619.044067,2060.405273 630.231140,2060.338379 
	C646.222412,2060.242676 662.214722,2060.285400 678.206482,2060.319824 
	C692.167542,2060.350098 694.636963,2062.713379 694.603455,2076.498779 
	C694.476440,2128.801025 694.274292,2181.103027 694.112671,2233.405273 
	C694.109741,2234.352051 694.261108,2235.299316 694.469727,2237.790771 
	C696.630981,2234.951660 698.171204,2233.073242 699.556824,2231.086670 
	C722.594788,2198.058838 754.363037,2180.071045 794.395996,2177.943115 
	C808.883057,2177.173096 823.876099,2177.926025 838.052856,2180.836426 
	C878.412354,2189.121094 901.286438,2215.654297 909.507996,2255.098389 
	C912.206604,2268.045410 913.597839,2281.489258 913.685791,2294.718262 
	C914.106873,2358.016602 913.875488,2421.318848 913.873962,2484.619873 
	C913.873901,2486.618652 913.990417,2488.629639 913.815430,2490.614014 
	C913.214722,2497.428223 909.948242,2501.244629 903.104004,2501.355957 
	C884.118835,2501.665283 865.122437,2501.669434 846.137085,2501.372559 
	C839.247986,2501.265137 836.150208,2497.639404 835.522400,2490.599365 
	C835.256897,2487.622314 835.383301,2484.607666 835.382935,2481.610107 
	C835.376709,2426.304932 835.403564,2371.000000 835.339844,2315.694824 
	C835.333374,2310.046387 834.793030,2304.398438 834.426880,2297.864258 
z"/>
<path fill="#038FB6" opacity="1.000000" stroke="none" 
	d="
M2757.167480,3027.488770 
	C2768.204834,3021.817627 2778.661865,3016.680176 2788.788574,3010.958252 
	C2798.649902,3005.385498 2803.389893,3006.402344 2808.925537,3016.494873 
	C2814.530518,3026.714600 2820.082764,3036.965088 2825.520020,3047.275146 
	C2830.707031,3057.110596 2829.837646,3061.216064 2820.849609,3067.556641 
	C2796.529541,3084.713379 2769.644775,3096.048584 2740.359619,3101.091553 
	C2701.405029,3107.799561 2663.141602,3105.208740 2627.002197,3088.154297 
	C2574.016846,3063.150146 2544.129639,3020.584473 2535.936279,2963.000488 
	C2530.083496,2921.862549 2536.495361,2882.465820 2558.097656,2846.544678 
	C2584.289795,2802.991211 2623.832764,2779.950928 2673.811035,2773.787842 
	C2696.263428,2771.018799 2718.488770,2772.204834 2740.103516,2778.725342 
	C2785.620117,2792.456055 2813.838379,2823.653320 2827.652588,2868.350586 
	C2835.005127,2892.140869 2837.276855,2916.616455 2834.316895,2941.461914 
	C2833.282471,2950.144775 2830.197998,2953.196777 2821.687256,2953.665771 
	C2819.361328,2953.793701 2817.022461,2953.693115 2814.689697,2953.693115 
	C2752.702148,2953.693604 2690.714600,2953.683105 2628.727051,2953.717285 
	C2624.840088,2953.719482 2620.953369,2954.068115 2615.894287,2954.311768 
	C2616.251953,2958.521240 2616.172607,2961.767822 2616.843506,2964.851074 
	C2624.869873,3001.729248 2647.691406,3024.580566 2683.912842,3033.737305 
	C2708.572266,3039.970947 2732.844238,3036.806396 2757.167480,3027.488770 
M2722.467285,2840.244873 
	C2705.017578,2832.034912 2686.986572,2831.783691 2668.905273,2837.249756 
	C2641.849121,2845.429443 2626.544434,2864.760254 2619.516602,2891.361084 
	C2618.084961,2896.780029 2619.600586,2898.705322 2624.980225,2899.328125 
	C2626.953613,2899.556641 2628.972656,2899.408936 2630.970703,2899.408936 
	C2668.272217,2899.411865 2705.573730,2899.411865 2742.875244,2899.408936 
	C2744.873291,2899.408691 2746.891602,2899.551758 2748.865723,2899.326904 
	C2754.240479,2898.714355 2755.786865,2896.909180 2755.091064,2891.406006 
	C2752.364014,2869.836426 2743.769531,2851.840576 2722.467285,2840.244873 
z"/>
<path fill="#0590B6" opacity="1.000000" stroke="none" 
	d="
M2492.768799,2386.000000 
	C2492.769043,2324.687500 2492.763428,2264.375244 2492.771973,2204.062744 
	C2492.774414,2186.448975 2494.731201,2184.486572 2512.132324,2184.482910 
	C2525.794189,2184.480225 2539.456299,2184.450195 2553.118164,2184.491943 
	C2566.253418,2184.532227 2569.141602,2187.313721 2569.214844,2200.132324 
	C2569.289307,2213.102539 2569.231445,2226.073242 2569.231445,2239.455811 
	C2570.343262,2238.283691 2571.782227,2237.163574 2572.721680,2235.718262 
	C2600.128174,2193.560791 2639.574951,2175.236328 2689.058350,2177.557129 
	C2700.281982,2178.083252 2711.710938,2179.564941 2722.523926,2182.516846 
	C2753.947998,2191.095703 2773.918213,2212.013428 2783.809326,2242.780762 
	C2789.469727,2260.388184 2791.415283,2278.595947 2791.454102,2296.973145 
	C2791.586426,2359.617920 2791.506836,2422.263184 2791.502930,2484.908203 
	C2791.502930,2486.906738 2791.635498,2488.929688 2791.379883,2490.899170 
	C2790.496338,2497.700439 2787.186279,2501.291504 2780.284424,2501.389648 
	C2761.295410,2501.659424 2742.296875,2501.658691 2723.308594,2501.363281 
	C2716.984131,2501.264893 2713.547363,2497.641357 2712.685547,2491.464111 
	C2712.274414,2488.517578 2712.499512,2485.477539 2712.499268,2482.479736 
	C2712.491455,2426.499023 2712.606445,2370.518066 2712.384277,2314.538330 
	C2712.346191,2304.934326 2711.742188,2295.167480 2709.904053,2285.768311 
	C2705.369385,2262.580078 2690.904053,2250.736572 2667.449951,2249.766357 
	C2622.957031,2247.925781 2587.517334,2274.673096 2576.409912,2319.417480 
	C2573.709961,2330.293701 2572.509277,2341.787109 2572.392090,2353.015381 
	C2571.940918,2396.329102 2572.208252,2439.650146 2572.206299,2482.968506 
	C2572.206299,2485.301025 2572.320068,2487.641846 2572.166992,2489.964600 
	C2571.671143,2497.494629 2568.490967,2501.279785 2561.133789,2501.393799 
	C2542.144775,2501.688477 2523.146240,2501.668701 2504.156494,2501.403809 
	C2497.277588,2501.307861 2493.933350,2497.797119 2493.022461,2490.949219 
	C2492.629395,2487.996582 2492.778564,2484.964111 2492.777344,2481.968018 
	C2492.763184,2450.312012 2492.768555,2418.656006 2492.768799,2386.000000 
z"/>
<path fill="#038FB6" opacity="1.000000" stroke="none" 
	d="
M2261.218994,2844.000000 
	C2261.219238,2922.294189 2261.219971,2999.588379 2261.219971,3076.882568 
	C2261.219971,3079.214600 2261.320068,3081.552979 2261.190186,3083.877930 
	C2260.674561,3093.118408 2257.443115,3096.605469 2248.275146,3096.728027 
	C2231.619873,3096.949951 2214.957764,3096.934082 2198.302002,3096.742188 
	C2188.582031,3096.630127 2185.053467,3093.190674 2184.873779,3083.383057 
	C2184.678467,3072.734863 2185.098877,3062.074219 2185.303711,3051.420166 
	C2185.365234,3048.207520 2185.603271,3044.998291 2184.531738,3041.282959 
	C2183.152344,3043.408203 2181.790771,3045.544922 2180.390625,3047.656250 
	C2156.804688,3083.229980 2123.376221,3101.632812 2081.057861,3104.077148 
	C2063.654785,3105.082520 2046.433350,3103.325195 2029.800293,3097.731934 
	C1996.709717,3086.604492 1978.020508,3062.525391 1970.417725,3029.503174 
	C1967.528809,3016.955322 1965.968994,3003.830322 1965.880981,2990.954102 
	C1965.435425,2925.656982 1965.658813,2860.355225 1965.682373,2795.054932 
	C1965.686890,2782.640869 1968.372681,2780.013672 1981.070679,2779.961426 
	C1997.062256,2779.895508 2013.054565,2779.888184 2029.046143,2779.963379 
	C2041.482788,2780.021729 2044.307373,2782.838379 2044.315063,2795.290527 
	C2044.350220,2852.261719 2044.144409,2909.233887 2044.490601,2966.202881 
	C2044.557007,2977.104004 2045.703369,2988.224609 2048.128662,2998.837646 
	C2052.978271,3020.059814 2066.990234,3030.841797 2088.803223,3031.885986 
	C2124.528320,3033.596191 2154.315430,3015.098145 2170.041016,2981.375000 
	C2177.900635,2964.520264 2181.775635,2946.685303 2181.866699,2928.169922 
	C2182.077881,2885.192627 2181.944092,2842.213867 2181.950684,2799.235596 
	C2181.950928,2796.903564 2181.861816,2794.566650 2181.974365,2792.239990 
	C2182.377441,2783.916748 2185.909668,2780.160156 2194.391846,2780.018799 
	C2208.714111,2779.780029 2223.042969,2779.946533 2237.369141,2779.944092 
	C2240.700684,2779.943359 2244.034424,2779.876221 2247.363525,2779.965576 
	C2257.462891,2780.235840 2261.031982,2783.680664 2261.170898,2794.025391 
	C2261.363037,2808.348877 2261.218994,2822.676758 2261.219238,2837.002930 
	C2261.219238,2839.001953 2261.219238,2841.000977 2261.218994,2844.000000 
z"/>
<path fill="#038FB6" opacity="1.000000" stroke="none" 
	d="
M943.998047,3096.625000 
	C935.000366,3096.625000 927.000061,3096.683838 919.001038,3096.610107 
	C907.078613,3096.500000 904.164978,3093.693848 904.143799,3081.921143 
	C904.082642,3047.922363 904.122314,3013.923340 904.121948,2979.924561 
	C904.121643,2956.258789 904.547852,2932.581787 903.933167,2908.931885 
	C903.641418,2897.708252 902.495056,2886.247070 899.728821,2875.405762 
	C895.119385,2857.340820 882.353577,2847.649902 863.818787,2845.663330 
	C821.114563,2841.086914 784.687012,2864.649414 770.250793,2906.251465 
	C766.069092,2918.302246 763.922974,2930.741943 763.896729,2943.507324 
	C763.804138,2988.504395 763.753845,3033.501221 763.683350,3078.498291 
	C763.679199,3081.164307 763.870178,3083.856445 763.569702,3086.490723 
	C762.854736,3092.757812 759.583374,3096.354248 753.201782,3096.447266 
	C733.874390,3096.729248 714.537842,3096.735596 695.210266,3096.466797 
	C688.387207,3096.371582 685.110352,3092.685303 684.388245,3085.802979 
	C684.145935,3083.493896 684.315613,3081.140625 684.315552,3078.807373 
	C684.312988,2985.143799 684.312195,2891.480469 684.314453,2797.816895 
	C684.314514,2795.484131 684.149658,2793.128418 684.409851,2790.822754 
	C685.159180,2784.183105 688.722717,2780.214355 695.348755,2780.104736 
	C713.342712,2779.806396 731.348694,2779.774902 749.341675,2780.097412 
	C756.949707,2780.233887 760.181641,2784.249512 760.276978,2792.579834 
	C760.436523,2806.533691 760.320496,2820.490479 760.320496,2835.946533 
	C762.298218,2833.430908 763.693909,2831.895996 764.822693,2830.184814 
	C793.292725,2787.029785 834.299988,2769.839111 884.697815,2773.006836 
	C895.565918,2773.690186 906.603821,2775.717041 917.012451,2778.917236 
	C950.805054,2789.306152 969.400146,2813.788330 977.778076,2847.112061 
	C981.791077,2863.073975 982.609131,2879.357910 982.615479,2895.712158 
	C982.639160,2957.043457 982.625549,3018.374512 982.620422,3079.705811 
	C982.620239,3081.704834 982.691528,3083.716553 982.504333,3085.700928 
	C981.778625,3093.394287 978.907532,3096.298584 970.994507,3096.542725 
	C962.335754,3096.809814 953.662842,3096.617188 943.998047,3096.625000 
z"/>
<path fill="#038FB6" opacity="1.000000" stroke="none" 
	d="
M1060.789062,3079.265381 
	C1054.367188,3074.971191 1048.384155,3071.308105 1042.813965,3067.098389 
	C1033.968384,3060.413818 1033.159058,3055.867432 1038.936157,3046.806885 
	C1045.741577,3036.133545 1052.673706,3025.538574 1059.700806,3015.009277 
	C1065.644165,3006.104492 1070.693481,3005.139404 1079.604248,3011.465332 
	C1096.141479,3023.205566 1114.139648,3031.601074 1134.158447,3035.062744 
	C1147.346069,3037.343018 1160.789307,3038.412354 1173.691528,3033.844727 
	C1179.180664,3031.901367 1184.701660,3028.766357 1188.930786,3024.808350 
	C1198.060791,3016.262451 1198.583374,3003.399414 1189.840820,2994.433105 
	C1184.373169,2988.825195 1177.612305,2984.018311 1170.612427,2980.467041 
	C1158.463745,2974.303467 1145.624512,2969.514648 1133.178467,2963.919434 
	C1121.038696,2958.461670 1108.745728,2953.239014 1097.054077,2946.924072 
	C1088.317749,2942.205078 1079.864502,2936.589355 1072.258911,2930.211426 
	C1029.208008,2894.110840 1031.894287,2829.236328 1077.576538,2796.502441 
	C1093.875854,2784.822510 1112.289795,2778.252930 1131.947876,2775.144043 
	C1171.176270,2768.939697 1208.978027,2773.155273 1244.639404,2791.503418 
	C1250.243286,2794.386963 1255.612427,2797.834717 1260.738525,2801.511719 
	C1266.894897,2805.927979 1268.305542,2810.461914 1265.169922,2817.081787 
	C1259.041626,2830.020508 1252.660034,2842.854248 1245.904175,2855.474854 
	C1242.076172,2862.625732 1236.580566,2863.759277 1229.082886,2859.130371 
	C1213.234619,2849.345947 1196.145142,2843.223633 1177.723511,2840.869385 
	C1167.104004,2839.512207 1156.305908,2838.776611 1146.038696,2842.270752 
	C1140.201050,2844.257080 1134.177124,2847.168213 1129.650635,2851.235596 
	C1119.573364,2860.291748 1119.495850,2873.755615 1129.456665,2882.913086 
	C1135.001099,2888.010254 1141.665405,2892.231201 1148.458496,2895.550537 
	C1159.507568,2900.948730 1171.126831,2905.167480 1182.411255,2910.099609 
	C1194.304932,2915.298096 1206.343384,2920.259277 1217.836914,2926.248535 
	C1226.650391,2930.841309 1235.142944,2936.311523 1243.043091,2942.352783 
	C1290.878174,2978.932373 1284.958008,3047.189209 1239.921631,3079.729980 
	C1219.002930,3094.844482 1195.300537,3101.861572 1169.972900,3103.745361 
	C1131.434814,3106.612305 1095.108643,3098.905762 1060.789062,3079.265381 
z"/>
<path fill="#048FB6" opacity="1.000000" stroke="none" 
	d="
M1458.213257,3024.431152 
	C1473.025635,3029.679443 1487.572510,3030.288574 1502.822388,3029.066650 
	C1503.203003,3031.138672 1503.827759,3032.981689 1503.836060,3034.827637 
	C1503.911743,3051.817139 1503.972412,3068.807861 1503.844482,3085.796875 
	C1503.774536,3095.071045 1500.592773,3099.052490 1491.705444,3099.506104 
	C1462.572632,3100.992432 1433.724731,3099.478027 1406.290771,3088.193848 
	C1374.746826,3075.219238 1357.345947,3051.480225 1353.781006,3017.651123 
	C1352.980225,3010.052490 1352.573242,3002.377441 1352.554199,2994.736328 
	C1352.442505,2949.763672 1352.499268,2904.790283 1352.499390,2859.817139 
	C1352.499390,2856.238281 1352.499390,2852.659424 1352.499390,2848.058838 
	C1343.230713,2848.058838 1334.988403,2848.121094 1326.747559,2848.043945 
	C1315.115601,2847.934814 1311.915039,2844.800781 1311.819580,2833.267822 
	C1311.723022,2821.609131 1311.674316,2809.946777 1311.841309,2798.289307 
	C1311.980103,2788.603760 1315.380127,2785.118652 1325.170288,2784.836670 
	C1334.450317,2784.569336 1343.744263,2784.779297 1354.497803,2784.779297 
	C1354.497803,2780.932861 1354.497803,2777.743652 1354.497803,2774.554688 
	C1354.498413,2752.900879 1354.464233,2731.247314 1354.512817,2709.593506 
	C1354.541504,2696.810791 1357.544556,2693.850342 1370.472412,2693.805664 
	C1385.796509,2693.752686 1401.121094,2693.742676 1416.444946,2693.809814 
	C1428.843384,2693.864014 1431.835938,2696.811279 1431.866333,2709.020508 
	C1431.920410,2730.674316 1431.882568,2752.327881 1431.883179,2773.981689 
	C1431.883179,2777.222656 1431.883057,2780.463623 1431.883057,2784.287842 
	C1436.162354,2784.478271 1439.403931,2784.738281 1442.646240,2784.747314 
	C1458.303467,2784.791504 1473.962769,2784.621582 1489.617676,2784.819336 
	C1500.509644,2784.956787 1503.777222,2788.442871 1503.861816,2799.392822 
	C1503.952026,2811.051758 1503.979614,2822.713379 1503.850098,2834.371582 
	C1503.737549,2844.509033 1500.241211,2847.946289 1489.862061,2848.026855 
	C1474.205688,2848.147949 1458.547729,2848.059326 1442.890381,2848.059814 
	C1439.632202,2848.060059 1436.374023,2848.059814 1432.503540,2848.059814 
	C1432.257202,2851.426758 1431.909302,2853.982422 1431.907349,2856.538574 
	C1431.874878,2899.179932 1432.108398,2941.822754 1431.786133,2984.461670 
	C1431.640869,3003.673340 1439.440674,3017.053711 1458.213257,3024.431152 
z"/>
<path fill="#038FB6" opacity="1.000000" stroke="none" 
	d="
M1832.657959,2986.933105 
	C1835.900391,3012.355957 1847.569336,3024.481689 1872.237549,3027.885498 
	C1882.398560,3029.287842 1892.735107,3029.418701 1903.732544,3030.179199 
	C1903.825195,3030.478516 1904.520630,3031.687012 1904.526245,3032.898926 
	C1904.608398,3050.897461 1904.727417,3068.897705 1904.553101,3086.894775 
	C1904.474121,3095.038330 1901.279297,3098.980469 1893.424805,3099.419922 
	C1863.248779,3101.108643 1833.357300,3099.525879 1805.140869,3087.322021 
	C1772.878296,3073.368164 1756.979004,3047.730225 1754.130005,3013.336182 
	C1753.745605,3008.695801 1753.817261,3004.010986 1753.815308,2999.346680 
	C1753.795044,2953.015625 1753.803589,2906.684814 1753.804077,2860.353760 
	C1753.804077,2856.732666 1753.804077,2853.111816 1753.804077,2848.051514 
	C1744.947876,2848.051514 1736.759888,2848.089111 1728.572388,2848.043213 
	C1715.829956,2847.971680 1712.611450,2844.812256 1712.519043,2832.150635 
	C1712.443726,2821.818359 1712.458130,2811.484863 1712.521973,2801.152344 
	C1712.603027,2788.006348 1715.783936,2784.902832 1729.272095,2784.791748 
	C1737.571167,2784.723389 1745.871460,2784.779053 1755.053467,2784.779053 
	C1755.290527,2781.253418 1755.643677,2778.393311 1755.649780,2775.532715 
	C1755.696777,2753.533691 1755.635620,2731.534912 1755.693115,2709.535889 
	C1755.727295,2696.436035 1758.355225,2693.856934 1771.576294,2693.812012 
	C1786.908691,2693.760254 1802.241699,2693.745361 1817.573853,2693.819336 
	C1830.100708,2693.879639 1832.569824,2696.416504 1832.605713,2709.292236 
	C1832.665161,2730.624512 1832.622070,2751.956787 1832.622314,2773.289062 
	C1832.622314,2776.570068 1832.622314,2779.851074 1832.622314,2783.807129 
	C1835.826294,2784.184570 1838.335205,2784.724121 1840.846802,2784.736572 
	C1856.845581,2784.815918 1872.845459,2784.699707 1888.844116,2784.804443 
	C1901.763794,2784.889160 1904.555176,2787.787598 1904.610840,2800.800293 
	C1904.659302,2812.132812 1904.755493,2823.468018 1904.579834,2834.797852 
	C1904.425049,2844.786865 1901.307373,2847.907227 1891.299561,2848.005127 
	C1875.635132,2848.158203 1859.968262,2848.050537 1844.302368,2848.053223 
	C1840.990601,2848.053955 1837.678955,2848.053223 1832.945435,2848.053223 
	C1832.275757,2871.379395 1832.718506,2894.217773 1832.640503,2917.039795 
	C1832.561890,2940.038330 1832.632568,2963.037598 1832.657959,2986.933105 
z"/>
<path fill="#038FB6" opacity="1.000000" stroke="none" 
	d="
M2361.829102,3049.940674 
	C2354.405762,3034.937988 2351.743652,3019.698486 2351.771729,3003.807861 
	C2351.855957,2955.831299 2351.802734,2907.854980 2351.803467,2859.878418 
	C2351.803467,2856.299561 2351.803711,2852.720703 2351.803711,2848.051270 
	C2342.578125,2848.051270 2334.345215,2848.094971 2326.112793,2848.041016 
	C2313.867432,2847.960693 2310.619385,2844.827637 2310.524902,2832.821045 
	C2310.435791,2821.493896 2310.384521,2810.164062 2310.546875,2798.838379 
	C2310.693359,2788.626221 2314.152588,2785.112061 2324.486328,2784.841309 
	C2333.774414,2784.597656 2343.074219,2784.789795 2353.122070,2784.789795 
	C2353.335693,2781.123535 2353.645752,2778.224854 2353.651123,2775.325439 
	C2353.692627,2753.336182 2353.645996,2731.347168 2353.686279,2709.357910 
	C2353.710205,2696.234131 2356.164795,2693.850098 2369.623535,2693.810303 
	C2384.282959,2693.766846 2398.942627,2693.781494 2413.602051,2693.805908 
	C2428.399414,2693.830322 2430.579346,2695.923584 2430.610107,2710.382080 
	C2430.656494,2732.038086 2430.623291,2753.694336 2430.623779,2775.350342 
	C2430.623779,2777.960205 2430.623779,2780.570068 2430.623779,2783.831787 
	C2433.873047,2784.201904 2436.387939,2784.724365 2438.905762,2784.736572 
	C2454.897461,2784.813477 2470.890381,2784.697754 2486.881836,2784.802979 
	C2499.652832,2784.887207 2502.537598,2787.898193 2502.607666,2800.903076 
	C2502.668457,2812.230713 2502.779053,2823.561768 2502.563965,2834.885498 
	C2502.377930,2844.678467 2499.051025,2847.906738 2489.099854,2848.004639 
	C2473.442383,2848.158691 2457.782471,2848.050781 2442.123535,2848.053223 
	C2438.813965,2848.053711 2435.504639,2848.053223 2431.085449,2848.053223 
	C2430.916016,2852.137939 2430.644287,2855.675293 2430.641602,2859.212402 
	C2430.611816,2900.192383 2431.108887,2941.179688 2430.462646,2982.149658 
	C2429.985352,3012.417969 2447.022461,3024.151611 2470.437012,3027.889648 
	C2480.528809,3029.500977 2490.888428,3029.436768 2501.806152,3030.179932 
	C2501.925049,3030.622314 2502.535645,3031.843994 2502.540771,3033.068359 
	C2502.614502,3050.726074 2502.730469,3068.385010 2502.568359,3086.041260 
	C2502.484131,3095.218994 2499.191650,3099.035889 2490.194824,3099.524170 
	C2462.742432,3101.014160 2435.560059,3099.399414 2409.419434,3089.927979 
	C2389.007080,3082.531494 2372.551758,3070.154297 2361.829102,3049.940674 
z"/>
<path fill="#028FB5" opacity="1.000000" stroke="none" 
	d="
M1190.034790,2060.312012 
	C1201.020264,2060.312988 1211.014160,2060.239502 1221.006470,2060.333740 
	C1232.623291,2060.443359 1235.968872,2063.666016 1236.013672,2075.094971 
	C1236.106201,2098.745117 1236.043945,2122.395996 1236.044067,2146.046387 
	C1236.044678,2227.323975 1235.986206,2308.601807 1236.140381,2389.879150 
	C1236.154785,2397.477539 1236.771606,2405.235840 1238.402222,2412.635010 
	C1241.484131,2426.619141 1250.354004,2433.382080 1264.739258,2433.900391 
	C1269.370117,2434.067383 1274.012085,2433.926514 1279.131470,2433.926514 
	C1279.465210,2436.117188 1279.992798,2437.996338 1280.000366,2439.877686 
	C1280.067871,2456.532715 1280.126465,2473.188477 1280.014404,2489.843018 
	C1279.944458,2500.206299 1276.737305,2503.942139 1266.404663,2503.946777 
	C1253.459595,2503.952393 1240.335083,2504.152100 1227.602295,2502.208984 
	C1189.252319,2496.356934 1166.533569,2473.390625 1160.210205,2434.989014 
	C1158.649170,2425.508301 1157.799438,2415.798584 1157.784912,2406.192383 
	C1157.619141,2296.267822 1157.678101,2186.343262 1157.677490,2076.418457 
	C1157.677490,2075.086182 1157.634888,2073.751709 1157.690186,2072.421631 
	C1158.044800,2063.895752 1161.249023,2060.648438 1170.056885,2060.361328 
	C1176.379150,2060.155029 1182.713501,2060.315186 1190.034790,2060.312012 
z"/>
<path fill="#0690B7" opacity="1.000000" stroke="none" 
	d="
M520.500732,3084.779297 
	C520.488525,2947.674072 520.487488,2811.452393 520.488586,2675.230469 
	C520.488647,2672.566162 520.317749,2669.883545 520.564697,2667.240967 
	C521.242859,2659.986816 524.807129,2656.119873 532.003357,2656.029541 
	C551.317810,2655.787109 570.639282,2655.791016 589.953674,2656.035889 
	C596.757935,2656.122070 600.217651,2659.734375 601.074463,2666.480957 
	C601.407959,2669.106934 601.234802,2671.801514 601.234924,2674.464844 
	C601.241028,2809.354492 601.241333,2944.244141 601.237732,3079.133789 
	C601.237671,3081.464111 601.391724,3083.820068 601.113586,3086.120361 
	C600.285706,3092.969238 597.051147,3096.539307 590.109375,3096.645996 
	C570.797180,3096.943359 551.475159,3096.941895 532.162292,3096.677002 
	C524.717896,3096.574951 523.251282,3094.701172 520.500732,3084.779297 
z"/>
<path fill="#0590B6" opacity="1.000000" stroke="none" 
	d="
M2415.886963,2324.000000 
	C2415.886963,2377.657959 2415.887207,2430.315918 2415.886719,2482.973877 
	C2415.886475,2485.306885 2416.006348,2487.648438 2415.851807,2489.971436 
	C2415.357422,2497.399414 2412.031250,2501.292236 2404.772217,2501.396973 
	C2385.779541,2501.671875 2366.777344,2501.680176 2347.784912,2501.389893 
	C2340.488525,2501.278564 2337.183594,2497.454102 2336.548584,2489.992920 
	C2336.351562,2487.676270 2336.494629,2485.329834 2336.494629,2482.997070 
	C2336.493408,2389.678955 2336.493896,2296.361084 2336.494385,2203.042969 
	C2336.494385,2201.043457 2336.406006,2199.038330 2336.519775,2197.045166 
	C2337.012695,2188.397461 2340.303467,2184.679443 2348.754395,2184.567627 
	C2367.081543,2184.324463 2385.416260,2184.318359 2403.743164,2184.565430 
	C2412.776367,2184.687500 2415.851074,2188.572510 2415.864746,2199.020508 
	C2415.918945,2240.346924 2415.886963,2281.673584 2415.886963,2324.000000 
z"/>
<path fill="#0590B6" opacity="1.000000" stroke="none" 
	d="
M995.942627,2274.000000 
	C995.943542,2248.671387 995.901733,2224.343018 995.963257,2200.014404 
	C995.994751,2187.561768 998.954651,2184.555420 1011.160461,2184.502441 
	C1027.490234,2184.431641 1043.820923,2184.425537 1060.150635,2184.501953 
	C1072.141968,2184.557861 1075.472412,2187.854004 1075.478271,2200.065918 
	C1075.524536,2295.380371 1075.524658,2390.695068 1075.478027,2486.009521 
	C1075.472046,2498.178711 1072.132812,2501.447510 1060.096558,2501.499756 
	C1043.766724,2501.570312 1027.436157,2501.568604 1011.106323,2501.500000 
	C998.924377,2501.448730 995.967834,2498.448730 995.961609,2485.958496 
	C995.926270,2415.638916 995.943359,2345.319580 995.942627,2274.000000 
z"/>
<path fill="#018EB5" opacity="1.000000" stroke="none" 
	d="
M1650.309326,2792.807617 
	C1650.316406,2888.375977 1650.317383,2983.030762 1650.317871,3077.685791 
	C1650.317871,3079.685547 1650.368652,3081.687012 1650.302734,3083.684814 
	C1649.983032,3093.378906 1647.242798,3096.450684 1637.768799,3096.551270 
	C1619.773071,3096.742432 1601.772461,3096.740479 1583.776733,3096.550049 
	C1574.792603,3096.455078 1571.938477,3093.417725 1571.426025,3084.488037 
	C1571.292480,3082.162109 1571.385986,3079.822998 1571.385864,3077.489990 
	C1571.385010,2984.834717 1571.382568,2892.179688 1571.387573,2799.524414 
	C1571.388550,2781.506836 1572.907959,2779.963135 1590.551147,2779.955078 
	C1605.882568,2779.947998 1621.214966,2779.851807 1636.545044,2779.995361 
	C1646.356689,2780.087158 1648.305298,2781.942627 1650.309326,2792.807617 
z"/>
<path fill="#0992B7" opacity="1.000000" stroke="none" 
	d="
M2415.533203,2078.585449 
	C2415.532715,2091.485352 2415.600830,2103.458252 2415.514893,2115.429932 
	C2415.426270,2127.736816 2412.270752,2131.116699 2400.350342,2131.228271 
	C2384.055908,2131.380371 2367.758057,2131.373291 2351.463623,2131.228516 
	C2339.911865,2131.125977 2336.583740,2127.752930 2336.493652,2116.324219 
	C2336.386230,2102.689941 2336.398682,2089.053711 2336.483154,2075.419189 
	C2336.556885,2063.460449 2339.803223,2060.339600 2352.126221,2060.291504 
	C2367.424072,2060.231689 2382.722412,2060.261719 2398.020508,2060.281494 
	C2412.800049,2060.300537 2415.258789,2062.756348 2415.533203,2078.585449 
z"/>
<path fill="#0690B7" opacity="1.000000" stroke="none" 
	d="
M1018.350098,2131.248047 
	C996.738831,2132.021973 995.331482,2127.735840 995.868958,2109.810547 
	C996.228455,2097.824463 995.816101,2085.816895 995.981262,2073.822266 
	C996.115540,2064.073486 999.585449,2060.454346 1009.203491,2060.352295 
	C1026.530518,2060.168457 1043.861816,2060.181152 1061.189087,2060.345459 
	C1071.108643,2060.439453 1074.230225,2063.692627 1074.307983,2073.656006 
	C1074.422607,2088.317871 1074.419800,2102.981934 1074.311401,2117.644043 
	C1074.238037,2127.563721 1071.141968,2130.965088 1061.284912,2131.165283 
	C1047.294312,2131.449463 1033.293579,2131.244141 1018.350098,2131.248047 
z"/>
<path fill="#038FB6" opacity="1.000000" stroke="none" 
	d="
M1633.421753,2655.943359 
	C1647.020264,2656.394775 1649.798096,2659.041016 1649.860840,2671.075928 
	C1649.932007,2684.700439 1649.951782,2698.325928 1649.851685,2711.949951 
	C1649.771118,2722.916260 1646.555298,2726.126465 1635.592163,2726.180664 
	C1618.644653,2726.264648 1601.696045,2726.288330 1584.749023,2726.171875 
	C1574.656006,2726.102783 1571.584595,2723.183350 1571.437256,2713.127441 
	C1571.223267,2698.508789 1571.232422,2683.882812 1571.431152,2669.263916 
	C1571.567017,2659.275635 1574.787964,2656.084961 1584.640747,2655.991455 
	C1600.590332,2655.839844 1616.542236,2655.946045 1633.421753,2655.943359 
z"/>
<path fill="#028EB5" opacity="1.000000" stroke="none" 
	d="
M1126.029175,528.031616 
	C1125.674805,528.702881 1125.053711,529.096252 1124.432739,529.489624 
	C1124.399780,528.971558 1124.366943,528.453430 1124.780273,527.567749 
	C1125.226440,527.200073 1125.762451,527.753662 1126.029175,528.031616 
z"/>
<path fill="#FDFEFE" opacity="1.000000" stroke="none" 
	d="
M2983.691406,2440.770508 
	C2958.017090,2435.604736 2940.704590,2420.639160 2930.700195,2398.170166 
	C2914.904785,2362.694580 2914.184570,2326.219727 2929.975586,2290.615723 
	C2948.710449,2248.373779 2990.947021,2237.674805 3024.625732,2249.862061 
	C3041.015625,2255.793457 3052.812256,2267.233398 3061.613281,2281.934814 
	C3068.529785,2293.488037 3072.938721,2306.053711 3074.911865,2319.339600 
	C3078.583496,2344.066650 3077.733643,2368.528564 3068.571045,2392.116699 
	C3054.453857,2428.461914 3023.308350,2446.446777 2983.691406,2440.770508 
z"/>
<path fill="#FDFEFE" opacity="1.000000" stroke="none" 
	d="
M1503.955566,2253.752441 
	C1528.911011,2268.392090 1540.175781,2291.242676 1545.439941,2317.611084 
	C1549.951904,2340.211182 1548.645630,2362.829590 1541.835205,2384.820801 
	C1533.068115,2413.131348 1515.663574,2433.317871 1485.660278,2440.147217 
	C1452.248657,2447.751953 1421.010254,2433.673096 1404.179077,2403.880371 
	C1396.687134,2390.619141 1392.567139,2376.256836 1390.898926,2361.239258 
	C1388.209473,2337.027344 1390.003296,2313.285645 1400.341064,2290.822510 
	C1419.204590,2249.833496 1462.912964,2234.019043 1503.955566,2253.752441 
z"/>
<path fill="#F9FCFD" opacity="1.000000" stroke="none" 
	d="
M2723.130127,2840.591309 
	C2743.769531,2851.840576 2752.364014,2869.836426 2755.091064,2891.406006 
	C2755.786865,2896.909180 2754.240479,2898.714355 2748.865723,2899.326904 
	C2746.891602,2899.551758 2744.873291,2899.408691 2742.875244,2899.408936 
	C2705.573730,2899.411865 2668.272217,2899.411865 2630.970703,2899.408936 
	C2628.972656,2899.408936 2626.953613,2899.556641 2624.980225,2899.328125 
	C2619.600586,2898.705322 2618.084961,2896.780029 2619.516602,2891.361084 
	C2626.544434,2864.760254 2641.849121,2845.429443 2668.905273,2837.249756 
	C2686.986572,2831.783691 2705.017578,2832.034912 2723.130127,2840.591309 
z"/>
</svg>